<?xml version="1.0" encoding="UTF-8" standalone="no"?>
<svg
   xmlns:dc="http://purl.org/dc/elements/1.1/"
   xmlns:cc="http://creativecommons.org/ns#"
   xmlns:rdf="http://www.w3.org/1999/02/22-rdf-syntax-ns#"
   xmlns:svg="http://www.w3.org/2000/svg"
   xmlns="http://www.w3.org/2000/svg"
   xmlns:sodipodi="http://sodipodi.sourceforge.net/DTD/sodipodi-0.dtd"
   xmlns:inkscape="http://www.inkscape.org/namespaces/inkscape"
   viewBox="0 0 720 320"
   version="1.1"
   id="svg40"
   sodipodi:docname="logo-full-path.svg"
   width="720"
   height="320"
   inkscape:version="1.0.1 (c497b03c, 2020-09-10)">
  <metadata
     id="metadata46">
    <rdf:RDF>
      <cc:Work
         rdf:about="">
        <dc:format>image/svg+xml</dc:format>
        <dc:type
           rdf:resource="http://purl.org/dc/dcmitype/StillImage" />
        <dc:title></dc:title>
      </cc:Work>
    </rdf:RDF>
  </metadata>
  <defs
     id="defs44" />
  <sodipodi:namedview
     pagecolor="#ffffff"
     bordercolor="#666666"
     borderopacity="1"
     objecttolerance="10"
     gridtolerance="10"
     guidetolerance="10"
     inkscape:pageopacity="0"
     inkscape:pageshadow="2"
     inkscape:window-width="1680"
     inkscape:window-height="940"
     id="namedview42"
     showgrid="false"
     inkscape:zoom="0.98476907"
     inkscape:cx="274.18328"
     inkscape:cy="195.29274"
     inkscape:window-x="0"
     inkscape:window-y="25"
     inkscape:window-maximized="1"
     inkscape:current-layer="svg40"
     inkscape:document-rotation="0" />
  <path
     d="m 32.08576,34.885076 c -3.318775,0 -6.034135,2.71536 -6.034135,6.034135 v 44.250318 c 0,3.318773 2.71536,6.034134 6.034135,6.034134 h 4.022755 c 3.318774,0 6.034135,-2.715361 6.034135,-6.034134 V 62.340191 L 64.267809,84.465349 48.629541,100.10362 c -2.36337,2.36337 -2.36337,6.18499 0,8.54835 l 2.865821,2.86582 c 2.363369,2.36337 6.184987,2.36337 8.548357,0 l 15.638269,-15.638262 9.65815,9.658152 c -17.130414,13.21751 -27.812606,31.90486 -27.812606,52.6268 0,16.60127 6.935909,31.80728 18.438286,44.04898 -5.193498,13.74138 -15.998259,25.39065 -16.17254,25.53017 -2.300474,2.44135 -2.92831,5.99875 -1.603799,9.06789 1.324519,3.06914 4.322234,5.05693 7.66838,5.05693 21.436247,0 38.341231,-8.96342 48.484231,-16.14799 7.70101,2.41798 15.84799,4.04327 24.34671,4.68176 v 17.68893 h -26.14792 c -3.31877,0 -6.03413,2.71536 -6.03413,6.03414 v 4.02275 c 0,3.31877 2.71536,6.03413 6.03413,6.03413 h 26.14792 v 22.12517 c 0,3.31877 2.71535,6.03412 6.03412,6.03412 h 4.02276 c 3.31878,0 6.03414,-2.71535 6.03414,-6.03412 v -22.12517 h 26.14791 c 3.31878,0 6.03414,-2.71536 6.03414,-6.03413 v -4.02275 c 0,-3.31878 -2.71536,-6.03414 -6.03414,-6.03414 h -26.14791 v -17.67813 c 45.52537,-3.29724 81.2084,-34.37431 81.2084,-72.24854 0,-20.73264 -10.6932,-39.42874 -27.83912,-52.64743 l 43.17686,-43.176859 v 22.829338 c 0,3.318773 2.71537,6.034134 6.03414,6.034134 h 4.02276 c 3.31878,0 6.03413,-2.715361 6.03413,-6.034134 V 40.919211 c 0,-3.318775 -2.71535,-6.034135 -6.03413,-6.034135 h -44.25032 c -3.31878,0 -6.03414,2.71536 -6.03414,6.034135 v 4.022755 c 0,3.318774 2.71536,6.034135 6.03414,6.034135 h 22.82934 l -45.74706,45.747065 c -13.74594,-7.03126 -30.01462,-11.101862 -47.45695,-11.101862 -17.45555,0 -33.73583,4.076486 -47.48835,11.117576 L 86.99599,84.465349 102.63426,68.827082 c 2.36337,-2.36337 2.36337,-6.184988 0,-8.548357 l -2.865823,-2.866803 c -2.36337,-2.36337 -6.184988,-2.36337 -8.548357,0 L 75.631899,73.10126 53.50674,50.976101 h 22.829339 c 3.318773,0 6.034133,-2.715361 6.034133,-6.034135 v -4.022755 c 0,-3.318775 -2.71536,-6.034135 -6.034133,-6.034135 z m 114.61319,66.914664 c 40.01218,0 72.57265,25.93882 72.57265,57.78783 0,31.84901 -32.56047,57.78783 -72.57265,57.78783 -9.1688,0 -18.24001,-1.41159 -26.95521,-4.20249 l -4.92434,-1.57629 -4.21231,3.02099 c -7.45165,5.35194 -18.95302,11.5904 -33.240769,13.00226 3.887818,-4.95794 9.65449,-13.26536 13.218329,-22.85291 l 2.301102,-6.1402 -4.439177,-4.79372 C 79.0834,183.78584 74.126312,171.93317 74.126312,159.58757 c 0,-31.84902 32.560448,-57.78783 72.572638,-57.78783 z"
     id="path38"
     style="stroke-width:0.502844" />
  <g
     aria-label="Raad van
Neutrale
Taal"
     id="text72"
     style="font-style:normal;font-variant:normal;font-weight:bold;font-stretch:normal;font-size:64px;line-height:1.1;font-family:'Quicksand Light';-inkscape-font-specification:'Quicksand Light, Bold';fill:#000000;fill-opacity:1;stroke:none">
    <path
       d="m 302.87782,92.809578 q -1.792,0 -3.2,-1.088 -1.408,-1.152 -1.408,-2.816 v -36.992 q 0,-1.664 1.088,-2.752 1.152,-1.152 2.816,-1.152 h 18.432 q 3.328,0 6.208,1.792 2.944,1.728 4.736,4.864 1.792,3.072 1.792,7.104 0,2.432 -1.024,4.736 -0.96,2.304 -2.688,4.16 -1.664,1.856 -3.776,2.88 l 0.064,-1.472 q 1.792,0.96 2.944,2.304 1.216,1.28 1.856,2.816 0.704,1.472 0.832,3.2 0.256,1.6 0.32,2.816 0.128,1.216 0.384,2.048 0.32,0.832 1.152,1.28 1.408,0.832 1.728,2.432 0.384,1.536 -0.704,2.752 -0.704,0.832 -1.792,1.088 -1.088,0.192 -2.176,0 -1.088,-0.256 -1.792,-0.64 -1.088,-0.64 -2.176,-1.856 -1.088,-1.28 -1.792,-3.392 -0.64,-2.112 -0.64,-5.44 0,-1.088 -0.384,-1.984 -0.384,-0.96 -1.088,-1.6 -0.704,-0.704 -1.792,-1.024 -1.088,-0.384 -2.56,-0.384 h -12.928 l 0.96,-1.472 v 13.888 q 0,1.664 -0.896,2.816 -0.896,1.088 -2.496,1.088 z m 2.496,-22.912 h 14.912 q 1.152,0 2.24,-1.024 1.088,-1.088 1.792,-2.88 0.704,-1.856 0.704,-4.032 0,-2.816 -1.536,-4.672 -1.472,-1.92 -3.2,-1.92 h -14.784 l 0.768,-2.048 v 18.112 z"
       id="path202" />
    <path
       d="m 369.91182,57.929578 q 1.664,0 2.752,1.088 1.088,1.088 1.088,2.816 v 27.072 q 0,1.664 -1.088,2.816 -1.088,1.088 -2.752,1.088 -1.664,0 -2.752,-1.088 -1.088,-1.152 -1.088,-2.816 v -3.136 l 1.408,0.576 q 0,0.832 -0.896,2.048 -0.896,1.152 -2.432,2.304 -1.536,1.152 -3.648,1.984 -2.048,0.768 -4.48,0.768 -4.416,0 -8,-2.24 -3.584,-2.304 -5.696,-6.272 -2.048,-4.032 -2.048,-9.216 0,-5.248 2.048,-9.216 2.112,-4.032 5.632,-6.272 3.52,-2.304 7.808,-2.304 2.752,0 5.056,0.832 2.304,0.832 3.968,2.112 1.728,1.28 2.624,2.624 0.96,1.28 0.96,2.176 l -2.304,0.832 v -4.672 q 0,-1.664 1.088,-2.752 1.088,-1.152 2.752,-1.152 z m -12.928,28.48 q 2.816,0 4.928,-1.408 2.112,-1.408 3.264,-3.84 1.216,-2.432 1.216,-5.44 0,-3.072 -1.216,-5.504 -1.152,-2.432 -3.264,-3.84 -2.112,-1.408 -4.928,-1.408 -2.752,0 -4.864,1.408 -2.112,1.408 -3.328,3.84 -1.152,2.432 -1.152,5.504 0,3.008 1.152,5.44 1.216,2.432 3.328,3.84 2.112,1.408 4.864,1.408 z"
       id="path204" />
    <path
       d="m 410.78682,57.929578 q 1.664,0 2.752,1.088 1.088,1.088 1.088,2.816 v 27.072 q 0,1.664 -1.088,2.816 -1.088,1.088 -2.752,1.088 -1.664,0 -2.752,-1.088 -1.088,-1.152 -1.088,-2.816 v -3.136 l 1.408,0.576 q 0,0.832 -0.896,2.048 -0.896,1.152 -2.432,2.304 -1.536,1.152 -3.648,1.984 -2.048,0.768 -4.48,0.768 -4.416,0 -8,-2.24 -3.584,-2.304 -5.696,-6.272 -2.048,-4.032 -2.048,-9.216 0,-5.248 2.048,-9.216 2.112,-4.032 5.632,-6.272 3.52,-2.304 7.808,-2.304 2.752,0 5.056,0.832 2.304,0.832 3.968,2.112 1.728,1.28 2.624,2.624 0.96,1.28 0.96,2.176 l -2.304,0.832 v -4.672 q 0,-1.664 1.088,-2.752 1.088,-1.152 2.752,-1.152 z m -12.928,28.48 q 2.816,0 4.928,-1.408 2.112,-1.408 3.264,-3.84 1.216,-2.432 1.216,-5.44 0,-3.072 -1.216,-5.504 -1.152,-2.432 -3.264,-3.84 -2.112,-1.408 -4.928,-1.408 -2.752,0 -4.864,1.408 -2.112,1.408 -3.328,3.84 -1.152,2.432 -1.152,5.504 0,3.008 1.152,5.44 1.216,2.432 3.328,3.84 2.112,1.408 4.864,1.408 z"
       id="path206" />
    <path
       d="m 451.03682,45.449578 q 1.664,0 2.752,1.088 1.088,1.088 1.088,2.816 v 39.552 q 0,1.664 -1.088,2.816 -1.088,1.088 -2.752,1.088 -1.664,0 -2.752,-1.088 -1.088,-1.152 -1.088,-2.816 v -3.136 l 1.408,0.576 q 0,0.832 -0.896,2.048 -0.896,1.152 -2.432,2.304 -1.536,1.152 -3.648,1.984 -2.048,0.768 -4.48,0.768 -4.416,0 -8,-2.24 -3.584,-2.304 -5.696,-6.272 -2.048,-4.032 -2.048,-9.216 0,-5.248 2.048,-9.216 2.112,-4.032 5.632,-6.272 3.52,-2.304 7.808,-2.304 2.752,0 5.056,0.832 2.304,0.832 3.968,2.112 1.728,1.28 2.624,2.624 0.96,1.28 0.96,2.176 l -2.304,0.832 v -17.152 q 0,-1.664 1.088,-2.752 1.088,-1.152 2.752,-1.152 z m -12.928,40.96 q 2.816,0 4.928,-1.408 2.112,-1.408 3.264,-3.84 1.216,-2.432 1.216,-5.44 0,-3.072 -1.216,-5.504 -1.152,-2.432 -3.264,-3.84 -2.112,-1.408 -4.928,-1.408 -2.752,0 -4.864,1.408 -2.112,1.408 -3.328,3.84 -1.152,2.432 -1.152,5.504 0,3.008 1.152,5.44 1.216,2.432 3.328,3.84 2.112,1.408 4.864,1.408 z"
       id="path208" />
    <path
       d="m 482.66582,58.569578 q 1.216,0 2.24,0.64 1.024,0.576 1.536,1.792 l 9.408,21.504 -1.408,0.64 9.6,-22.08 q 1.088,-2.56 3.392,-2.432 1.6,0 2.56,1.024 1.024,0.96 1.024,2.432 0,0.448 -0.192,0.96 -0.128,0.512 -0.32,0.96 l -11.968,26.368 q -1.024,2.304 -3.264,2.432 -1.216,0.192 -2.368,-0.448 -1.088,-0.64 -1.664,-1.984 l -11.904,-26.368 q -0.128,-0.32 -0.32,-0.832 -0.128,-0.512 -0.128,-1.216 0,-1.152 1.024,-2.24 1.024,-1.152 2.752,-1.152 z"
       id="path210" />
    <path
       d="m 545.03682,57.929578 q 1.664,0 2.752,1.088 1.088,1.088 1.088,2.816 v 27.072 q 0,1.664 -1.088,2.816 -1.088,1.088 -2.752,1.088 -1.664,0 -2.752,-1.088 -1.088,-1.152 -1.088,-2.816 v -3.136 l 1.408,0.576 q 0,0.832 -0.896,2.048 -0.896,1.152 -2.432,2.304 -1.536,1.152 -3.648,1.984 -2.048,0.768 -4.48,0.768 -4.416,0 -8,-2.24 -3.584,-2.304 -5.696,-6.272 -2.048,-4.032 -2.048,-9.216 0,-5.248 2.048,-9.216 2.112,-4.032 5.632,-6.272 3.52,-2.304 7.808,-2.304 2.752,0 5.056,0.832 2.304,0.832 3.968,2.112 1.728,1.28 2.624,2.624 0.96,1.28 0.96,2.176 l -2.304,0.832 v -4.672 q 0,-1.664 1.088,-2.752 1.088,-1.152 2.752,-1.152 z m -12.928,28.48 q 2.816,0 4.928,-1.408 2.112,-1.408 3.264,-3.84 1.216,-2.432 1.216,-5.44 0,-3.072 -1.216,-5.504 -1.152,-2.432 -3.264,-3.84 -2.112,-1.408 -4.928,-1.408 -2.752,0 -4.864,1.408 -2.112,1.408 -3.328,3.84 -1.152,2.432 -1.152,5.504 0,3.008 1.152,5.44 1.216,2.432 3.328,3.84 2.112,1.408 4.864,1.408 z"
       id="path212" />
    <path
       d="m 575.55882,57.929578 q 4.736,0 7.168,1.984 2.496,1.984 3.392,5.312 0.96,3.264 0.96,7.296 v 16.384 q 0,1.664 -1.088,2.816 -1.088,1.088 -2.752,1.088 -1.664,0 -2.752,-1.088 -1.088,-1.152 -1.088,-2.816 v -16.384 q 0,-2.112 -0.576,-3.776 -0.512,-1.728 -1.92,-2.752 -1.408,-1.024 -4.032,-1.024 -2.56,0 -4.352,1.024 -1.728,1.024 -2.688,2.752 -0.896,1.664 -0.896,3.776 v 16.384 q 0,1.664 -1.088,2.816 -1.088,1.088 -2.752,1.088 -1.664,0 -2.752,-1.088 -1.088,-1.152 -1.088,-2.816 v -26.432 q 0,-1.664 1.088,-2.752 1.088,-1.152 2.752,-1.152 1.664,0 2.752,1.152 1.088,1.088 1.088,2.752 v 2.752 l -0.96,-0.192 q 0.576,-1.088 1.664,-2.304 1.088,-1.28 2.56,-2.368 1.472,-1.088 3.328,-1.728 1.856,-0.704 4.032,-0.704 z"
       id="path214" />
    <path
       d="m 332.25382,118.40958 q 1.536,0 2.496,1.024 0.96,1.024 0.96,2.56 v 37.312 q 0,1.664 -1.152,2.816 -1.088,1.088 -2.752,1.088 -0.832,0 -1.728,-0.256 -0.832,-0.32 -1.28,-0.832 l -25.152,-31.936 1.664,-1.024 v 30.464 q 0,1.536 -1.024,2.56 -0.96,1.024 -2.56,1.024 -1.536,0 -2.496,-1.024 -0.96,-1.024 -0.96,-2.56 v -37.312 q 0,-1.664 1.088,-2.752 1.152,-1.152 2.816,-1.152 0.896,0 1.856,0.384 0.96,0.32 1.408,1.024 l 24.384,31.104 -1.088,0.768 v -29.696 q 0,-1.536 0.96,-2.56 0.96,-1.024 2.56,-1.024 z"
       id="path216" />
    <path
       d="m 360.75782,163.84958 q -5.44,0 -9.472,-2.24 -3.968,-2.304 -6.144,-6.208 -2.112,-3.904 -2.112,-8.832 0,-5.76 2.304,-9.792 2.368,-4.096 6.144,-6.272 3.776,-2.176 8,-2.176 3.264,0 6.144,1.344 2.944,1.344 5.184,3.712 2.24,2.304 3.52,5.376 1.344,3.072 1.344,6.528 -0.064,1.536 -1.216,2.496 -1.152,0.96 -2.688,0.96 h -24.448 l -1.92,-6.4 h 23.488 l -1.408,1.28 v -1.728 q -0.128,-1.856 -1.344,-3.328 -1.152,-1.472 -2.944,-2.304 -1.728,-0.896 -3.712,-0.896 -1.92,0 -3.584,0.512 -1.664,0.512 -2.88,1.728 -1.216,1.216 -1.92,3.264 -0.704,2.048 -0.704,5.184 0,3.456 1.408,5.888 1.472,2.368 3.712,3.648 2.304,1.216 4.864,1.216 2.368,0 3.776,-0.384 1.408,-0.384 2.24,-0.896 0.896,-0.576 1.6,-0.96 1.152,-0.576 2.176,-0.576 1.408,0 2.304,0.96 0.96,0.96 0.96,2.24 0,1.728 -1.792,3.136 -1.664,1.408 -4.672,2.496 -3.008,1.024 -6.208,1.024 z"
       id="path218" />
    <path
       d="m 407.78782,128.96958 q 1.664,0 2.752,1.152 1.088,1.088 1.088,2.752 v 16.256 q 0,6.784 -3.776,10.752 -3.776,3.968 -10.88,3.968 -7.104,0 -10.88,-3.968 -3.712,-3.968 -3.712,-10.752 v -16.256 q 0,-1.664 1.088,-2.752 1.088,-1.152 2.752,-1.152 1.664,0 2.752,1.152 1.088,1.088 1.088,2.752 v 16.256 q 0,3.904 1.728,5.824 1.728,1.856 5.184,1.856 3.52,0 5.248,-1.856 1.728,-1.92 1.728,-5.824 v -16.256 q 0,-1.664 1.088,-2.752 1.088,-1.152 2.752,-1.152 z"
       id="path220" />
    <path
       d="m 420.38882,129.60958 h 15.168 q 1.536,0 2.56,1.024 1.024,1.024 1.024,2.56 0,1.472 -1.024,2.496 -1.024,0.96 -2.56,0.96 h -15.168 q -1.536,0 -2.56,-1.024 -1.024,-1.024 -1.024,-2.56 0,-1.472 1.024,-2.432 1.024,-1.024 2.56,-1.024 z m 6.848,-8 q 1.664,0 2.688,1.152 1.088,1.088 1.088,2.752 v 28.48 q 0,0.896 0.32,1.472 0.384,0.576 0.96,0.832 0.64,0.256 1.344,0.256 0.768,0 1.408,-0.256 0.64,-0.32 1.472,-0.32 0.896,0 1.6,0.832 0.768,0.832 0.768,2.304 0,1.792 -1.984,2.944 -1.92,1.152 -4.16,1.152 -1.344,0 -3.008,-0.192 -1.6,-0.256 -3.072,-1.088 -1.408,-0.896 -2.368,-2.688 -0.96,-1.792 -0.96,-4.928 v -28.8 q 0,-1.664 1.088,-2.752 1.152,-1.152 2.816,-1.152 z"
       id="path222" />
    <path
       d="m 449.96982,163.20958 q -1.664,0 -2.752,-1.088 -1.088,-1.152 -1.088,-2.816 v -26.432 q 0,-1.664 1.088,-2.752 1.088,-1.152 2.752,-1.152 1.664,0 2.752,1.152 1.088,1.088 1.088,2.752 v 6.016 l -0.448,-4.288 q 0.704,-1.536 1.792,-2.688 1.152,-1.216 2.56,-1.984 1.408,-0.832 3.008,-1.216 1.6,-0.384 3.2,-0.384 1.92,0 3.2,1.088 1.344,1.088 1.344,2.56 0,2.112 -1.088,3.072 -1.088,0.896 -2.368,0.896 -1.216,0 -2.24,-0.448 -0.96,-0.448 -2.24,-0.448 -1.152,0 -2.368,0.576 -1.152,0.512 -2.176,1.664 -0.96,1.152 -1.6,2.88 -0.576,1.664 -0.576,3.968 v 15.168 q 0,1.664 -1.088,2.816 -1.088,1.088 -2.752,1.088 z"
       id="path224" />
    <path
       d="m 501.16182,128.32958 q 1.664,0 2.752,1.088 1.088,1.088 1.088,2.816 v 27.072 q 0,1.664 -1.088,2.816 -1.088,1.088 -2.752,1.088 -1.664,0 -2.752,-1.088 -1.088,-1.152 -1.088,-2.816 v -3.136 l 1.408,0.576 q 0,0.832 -0.896,2.048 -0.896,1.152 -2.432,2.304 -1.536,1.152 -3.648,1.984 -2.048,0.768 -4.48,0.768 -4.416,0 -8,-2.24 -3.584,-2.304 -5.696,-6.272 -2.048,-4.032 -2.048,-9.216 0,-5.248 2.048,-9.216 2.112,-4.032 5.632,-6.272 3.52,-2.304 7.808,-2.304 2.752,0 5.056,0.832 2.304,0.832 3.968,2.112 1.728,1.28 2.624,2.624 0.96,1.28 0.96,2.176 l -2.304,0.832 v -4.672 q 0,-1.664 1.088,-2.752 1.088,-1.152 2.752,-1.152 z m -12.928,28.48 q 2.816,0 4.928,-1.408 2.112,-1.408 3.264,-3.84 1.216,-2.432 1.216,-5.44 0,-3.072 -1.216,-5.504 -1.152,-2.432 -3.264,-3.84 -2.112,-1.408 -4.928,-1.408 -2.752,0 -4.864,1.408 -2.112,1.408 -3.328,3.84 -1.152,2.432 -1.152,5.504 0,3.008 1.152,5.44 1.216,2.432 3.328,3.84 2.112,1.408 4.864,1.408 z"
       id="path226" />
    <path
       d="m 521.69982,159.30558 q 0,1.664 -1.152,2.816 -1.088,1.088 -2.752,1.088 -1.6,0 -2.688,-1.088 -1.088,-1.152 -1.088,-2.816 v -39.552 q 0,-1.664 1.088,-2.752 1.152,-1.152 2.816,-1.152 1.664,0 2.688,1.152 1.088,1.088 1.088,2.752 z"
       id="path228" />
    <path
       d="m 546.13282,163.84958 q -5.44,0 -9.472,-2.24 -3.968,-2.304 -6.144,-6.208 -2.112,-3.904 -2.112,-8.832 0,-5.76 2.304,-9.792 2.368,-4.096 6.144,-6.272 3.776,-2.176 8,-2.176 3.264,0 6.144,1.344 2.944,1.344 5.184,3.712 2.24,2.304 3.52,5.376 1.344,3.072 1.344,6.528 -0.064,1.536 -1.216,2.496 -1.152,0.96 -2.688,0.96 h -24.448 l -1.92,-6.4 h 23.488 l -1.408,1.28 v -1.728 q -0.128,-1.856 -1.344,-3.328 -1.152,-1.472 -2.944,-2.304 -1.728,-0.896 -3.712,-0.896 -1.92,0 -3.584,0.512 -1.664,0.512 -2.88,1.728 -1.216,1.216 -1.92,3.264 -0.704,2.048 -0.704,5.184 0,3.456 1.408,5.888 1.472,2.368 3.712,3.648 2.304,1.216 4.864,1.216 2.368,0 3.776,-0.384 1.408,-0.384 2.24,-0.896 0.896,-0.576 1.6,-0.96 1.152,-0.576 2.176,-0.576 1.408,0 2.304,0.96 0.96,0.96 0.96,2.24 0,1.728 -1.792,3.136 -1.664,1.408 -4.672,2.496 -3.008,1.024 -6.208,1.024 z"
       id="path230" />
    <path
       d="m 313.43782,233.60958 q -1.792,0 -2.944,-1.088 -1.152,-1.152 -1.152,-2.816 v -37.12 h 8.32 v 37.12 q 0,1.664 -1.216,2.816 -1.152,1.088 -3.008,1.088 z m -14.144,-37.44 q -1.664,0 -2.816,-1.024 -1.088,-1.024 -1.088,-2.688 0,-1.664 1.088,-2.624 1.152,-1.024 2.816,-1.024 h 28.416 q 1.664,0 2.752,1.024 1.152,1.024 1.152,2.688 0,1.664 -1.152,2.688 -1.088,0.96 -2.752,0.96 z"
       id="path232" />
    <path
       d="m 359.41182,198.72958 q 1.664,0 2.752,1.088 1.088,1.088 1.088,2.816 v 27.072 q 0,1.664 -1.088,2.816 -1.088,1.088 -2.752,1.088 -1.664,0 -2.752,-1.088 -1.088,-1.152 -1.088,-2.816 v -3.136 l 1.408,0.576 q 0,0.832 -0.896,2.048 -0.896,1.152 -2.432,2.304 -1.536,1.152 -3.648,1.984 -2.048,0.768 -4.48,0.768 -4.416,0 -8,-2.24 -3.584,-2.304 -5.696,-6.272 -2.048,-4.032 -2.048,-9.216 0,-5.248 2.048,-9.216 2.112,-4.032 5.632,-6.272 3.52,-2.304 7.808,-2.304 2.752,0 5.056,0.832 2.304,0.832 3.968,2.112 1.728,1.28 2.624,2.624 0.96,1.28 0.96,2.176 l -2.304,0.832 v -4.672 q 0,-1.664 1.088,-2.752 1.088,-1.152 2.752,-1.152 z m -12.928,28.48 q 2.816,0 4.928,-1.408 2.112,-1.408 3.264,-3.84 1.216,-2.432 1.216,-5.44 0,-3.072 -1.216,-5.504 -1.152,-2.432 -3.264,-3.84 -2.112,-1.408 -4.928,-1.408 -2.752,0 -4.864,1.408 -2.112,1.408 -3.328,3.84 -1.152,2.432 -1.152,5.504 0,3.008 1.152,5.44 1.216,2.432 3.328,3.84 2.112,1.408 4.864,1.408 z"
       id="path234" />
    <path
       d="m 400.28682,198.72958 q 1.664,0 2.752,1.088 1.088,1.088 1.088,2.816 v 27.072 q 0,1.664 -1.088,2.816 -1.088,1.088 -2.752,1.088 -1.664,0 -2.752,-1.088 -1.088,-1.152 -1.088,-2.816 v -3.136 l 1.408,0.576 q 0,0.832 -0.896,2.048 -0.896,1.152 -2.432,2.304 -1.536,1.152 -3.648,1.984 -2.048,0.768 -4.48,0.768 -4.416,0 -8,-2.24 -3.584,-2.304 -5.696,-6.272 -2.048,-4.032 -2.048,-9.216 0,-5.248 2.048,-9.216 2.112,-4.032 5.632,-6.272 3.52,-2.304 7.808,-2.304 2.752,0 5.056,0.832 2.304,0.832 3.968,2.112 1.728,1.28 2.624,2.624 0.96,1.28 0.96,2.176 l -2.304,0.832 v -4.672 q 0,-1.664 1.088,-2.752 1.088,-1.152 2.752,-1.152 z m -12.928,28.48 q 2.816,0 4.928,-1.408 2.112,-1.408 3.264,-3.84 1.216,-2.432 1.216,-5.44 0,-3.072 -1.216,-5.504 -1.152,-2.432 -3.264,-3.84 -2.112,-1.408 -4.928,-1.408 -2.752,0 -4.864,1.408 -2.112,1.408 -3.328,3.84 -1.152,2.432 -1.152,5.504 0,3.008 1.152,5.44 1.216,2.432 3.328,3.84 2.112,1.408 4.864,1.408 z"
       id="path236" />
    <path
       d="m 420.82482,229.70558 q 0,1.664 -1.152,2.816 -1.088,1.088 -2.752,1.088 -1.6,0 -2.688,-1.088 -1.088,-1.152 -1.088,-2.816 v -39.552 q 0,-1.664 1.088,-2.752 1.152,-1.152 2.816,-1.152 1.664,0 2.688,1.152 1.088,1.088 1.088,2.752 z"
       id="path238" />
  </g>
  <g
     aria-label="pronouns.page"
     id="text84"
     style="font-style:normal;font-variant:normal;font-weight:normal;font-stretch:normal;font-size:40px;line-height:1.25;font-family:'Quicksand Light';-inkscape-font-specification:'Quicksand Light, ';fill:#000000;fill-opacity:1;stroke:none">
    <path
       d="m 373.3706,261.23569 q 2.72,0 4.8,1.36 2.12,1.32 3.36,3.68 1.24,2.32 1.24,5.36 0,3.04 -1.24,5.4 -1.24,2.36 -3.36,3.72 -2.12,1.36 -4.76,1.36 -1.4,0 -2.68,-0.4 -1.24,-0.44 -2.28,-1.16 -1.04,-0.72 -1.84,-1.68 -0.8,-1 -1.28,-2.16 l 0.72,-0.52 v 12.44 q 0,0.48 -0.36,0.84 -0.32,0.36 -0.84,0.36 -0.52,0 -0.88,-0.36 -0.32,-0.36 -0.32,-0.84 v -26.08 q 0,-0.52 0.32,-0.88 0.32,-0.36 0.88,-0.36 0.52,0 0.84,0.36 0.36,0.36 0.36,0.88 v 4.32 l -0.56,-0.32 q 0.4,-1.24 1.16,-2.2 0.8,-1 1.84,-1.68 1.04,-0.72 2.28,-1.08 1.24,-0.36 2.6,-0.36 z m -0.2,2.24 q -2.16,0 -3.8,1.08 -1.64,1.04 -2.6,2.88 -0.92,1.8 -0.92,4.2 0,2.36 0.92,4.24 0.96,1.88 2.6,2.96 1.64,1.04 3.8,1.04 2.12,0 3.72,-1.04 1.64,-1.08 2.6,-2.96 0.96,-1.88 0.96,-4.24 0,-2.36 -0.96,-4.2 -0.96,-1.84 -2.6,-2.88 -1.6,-1.08 -3.72,-1.08 z"
       id="path241" />
    <path
       d="m 389.06935,281.83569 q -0.56,0 -0.88,-0.36 -0.32,-0.36 -0.32,-0.84 v -17.92 q 0,-0.48 0.32,-0.84 0.36,-0.36 0.88,-0.36 0.52,0 0.84,0.36 0.36,0.36 0.36,0.84 v 6 l -0.6,0.12 q 0.12,-1.4 0.68,-2.76 0.6,-1.4 1.6,-2.56 1,-1.16 2.36,-1.88 1.4,-0.72 3.12,-0.72 0.72,0 1.4,0.32 0.68,0.28 0.68,0.96 0,0.6 -0.32,0.92 -0.32,0.32 -0.76,0.32 -0.36,0 -0.8,-0.2 -0.4,-0.2 -1.08,-0.2 -1.12,0 -2.24,0.68 -1.12,0.64 -2.04,1.76 -0.92,1.12 -1.48,2.52 -0.52,1.36 -0.52,2.76 v 9.88 q 0,0.48 -0.36,0.84 -0.36,0.36 -0.84,0.36 z"
       id="path243" />
    <path
       d="m 421.4406,271.59569 q 0,3.04 -1.32,5.48 -1.32,2.4 -3.6,3.8 -2.28,1.36 -5.2,1.36 -2.84,0 -5.16,-1.36 -2.28,-1.4 -3.64,-3.8 -1.32,-2.44 -1.32,-5.48 0,-3.08 1.32,-5.48 1.36,-2.4 3.64,-3.8 2.32,-1.4 5.16,-1.4 2.92,0 5.2,1.4 2.28,1.4 3.6,3.8 1.32,2.4 1.32,5.48 z m -2.4,0 q 0,-2.44 -1,-4.32 -1,-1.92 -2.76,-3 -1.72,-1.12 -3.96,-1.12 -2.16,0 -3.92,1.12 -1.76,1.08 -2.8,3 -1,1.88 -1,4.32 0,2.44 1,4.32 1.04,1.88 2.8,3 1.76,1.08 3.92,1.08 2.24,0 3.96,-1.08 1.76,-1.12 2.76,-3 1,-1.88 1,-4.32 z"
       id="path245" />
    <path
       d="m 436.18123,260.91569 q 2.64,0 4.2,1.08 1.6,1.04 2.28,2.88 0.72,1.8 0.72,4 v 11.76 q 0,0.48 -0.36,0.84 -0.36,0.36 -0.84,0.36 -0.56,0 -0.88,-0.36 -0.32,-0.36 -0.32,-0.84 v -11.64 q 0,-1.6 -0.52,-2.92 -0.52,-1.32 -1.72,-2.12 -1.16,-0.8 -3.08,-0.8 -1.72,0 -3.28,0.8 -1.52,0.8 -2.48,2.12 -0.96,1.32 -0.96,2.92 v 11.64 q 0,0.48 -0.36,0.84 -0.36,0.36 -0.84,0.36 -0.56,0 -0.88,-0.36 -0.32,-0.36 -0.32,-0.84 v -17.92 q 0,-0.48 0.32,-0.84 0.36,-0.36 0.88,-0.36 0.52,0 0.84,0.36 0.36,0.36 0.36,0.84 v 3.36 l -0.92,1.44 q 0.08,-1.28 0.8,-2.44 0.76,-1.2 1.92,-2.12 1.16,-0.96 2.56,-1.48 1.44,-0.56 2.88,-0.56 z"
       id="path247" />
    <path
       d="m 468.70623,271.59569 q 0,3.04 -1.32,5.48 -1.32,2.4 -3.6,3.8 -2.28,1.36 -5.2,1.36 -2.84,0 -5.16,-1.36 -2.28,-1.4 -3.64,-3.8 -1.32,-2.44 -1.32,-5.48 0,-3.08 1.32,-5.48 1.36,-2.4 3.64,-3.8 2.32,-1.4 5.16,-1.4 2.92,0 5.2,1.4 2.28,1.4 3.6,3.8 1.32,2.4 1.32,5.48 z m -2.4,0 q 0,-2.44 -1,-4.32 -1,-1.92 -2.76,-3 -1.72,-1.12 -3.96,-1.12 -2.16,0 -3.92,1.12 -1.76,1.08 -2.8,3 -1,1.88 -1,4.32 0,2.44 1,4.32 1.04,1.88 2.8,3 1.76,1.08 3.92,1.08 2.24,0 3.96,-1.08 1.76,-1.12 2.76,-3 1,-1.88 1,-4.32 z"
       id="path249" />
    <path
       d="m 489.08685,261.51569 q 0.52,0 0.84,0.36 0.36,0.36 0.36,0.84 v 11.28 q 0,3.96 -2.24,6.04 -2.24,2.08 -6.04,2.08 -3.76,0 -6,-2.08 -2.2,-2.08 -2.2,-6.04 v -11.28 q 0,-0.48 0.32,-0.84 0.36,-0.36 0.88,-0.36 0.52,0 0.84,0.36 0.36,0.36 0.36,0.84 v 11.28 q 0,2.88 1.52,4.4 1.56,1.48 4.28,1.48 2.76,0 4.32,-1.48 1.56,-1.52 1.56,-4.4 v -11.28 q 0,-0.48 0.32,-0.84 0.32,-0.36 0.88,-0.36 z"
       id="path251" />
    <path
       d="m 506.18123,260.91569 q 2.64,0 4.2,1.08 1.6,1.04 2.28,2.88 0.72,1.8 0.72,4 v 11.76 q 0,0.48 -0.36,0.84 -0.36,0.36 -0.84,0.36 -0.56,0 -0.88,-0.36 -0.32,-0.36 -0.32,-0.84 v -11.64 q 0,-1.6 -0.52,-2.92 -0.52,-1.32 -1.72,-2.12 -1.16,-0.8 -3.08,-0.8 -1.72,0 -3.28,0.8 -1.52,0.8 -2.48,2.12 -0.96,1.32 -0.96,2.92 v 11.64 q 0,0.48 -0.36,0.84 -0.36,0.36 -0.84,0.36 -0.56,0 -0.88,-0.36 -0.32,-0.36 -0.32,-0.84 v -17.92 q 0,-0.48 0.32,-0.84 0.36,-0.36 0.88,-0.36 0.52,0 0.84,0.36 0.36,0.36 0.36,0.84 v 3.36 l -0.92,1.44 q 0.08,-1.28 0.8,-2.44 0.76,-1.2 1.92,-2.12 1.16,-0.96 2.56,-1.48 1.44,-0.56 2.88,-0.56 z"
       id="path253" />
    <path
       d="m 518.50623,278.59569 q -0.32,-0.48 -0.32,-0.92 0.04,-0.48 0.52,-0.76 0.32,-0.28 0.72,-0.24 0.44,0.04 0.8,0.4 1.08,1.4 2.6,2.28 1.56,0.84 3.68,0.84 1.12,0 2.2,-0.36 1.12,-0.4 1.84,-1.16 0.72,-0.8 0.72,-2 0,-1.24 -0.72,-2 -0.72,-0.76 -1.88,-1.2 -1.12,-0.44 -2.4,-0.76 -1.36,-0.36 -2.64,-0.8 -1.28,-0.48 -2.28,-1.16 -0.96,-0.72 -1.56,-1.72 -0.6,-1 -0.6,-2.44 0,-1.68 0.92,-2.96 0.92,-1.28 2.48,-2 1.6,-0.72 3.6,-0.72 1,0 2.16,0.28 1.16,0.24 2.28,0.84 1.12,0.6 2,1.64 0.36,0.36 0.36,0.84 0,0.44 -0.4,0.8 -0.32,0.24 -0.76,0.24 -0.4,0 -0.68,-0.32 -0.96,-1.08 -2.28,-1.64 -1.32,-0.56 -2.84,-0.56 -1.16,0 -2.2,0.4 -1,0.36 -1.68,1.12 -0.68,0.76 -0.68,2 0.08,1.16 0.8,1.88 0.76,0.72 1.96,1.2 1.24,0.48 2.76,0.88 1.28,0.32 2.44,0.76 1.2,0.44 2.08,1.12 0.92,0.64 1.44,1.64 0.56,1 0.56,2.52 0,1.76 -1,3.04 -0.96,1.28 -2.6,1.96 -1.64,0.68 -3.64,0.68 -2.16,0 -4.2,-0.84 -2,-0.84 -3.56,-2.8 z"
       id="path255" />
    <path
       d="m 538.73623,281.83569 q -0.68,0 -1.04,-0.44 -0.36,-0.44 -0.36,-1.12 v -0.84 q 0,-0.72 0.36,-1.12 0.36,-0.4 1.04,-0.4 h 0.28 q 0.68,0 1.04,0.4 0.36,0.4 0.36,1.12 v 0.84 q 0,0.68 -0.36,1.12 -0.36,0.44 -1.04,0.44 z"
       id="path257" />
    <path
       d="m 555.40185,261.23569 q 2.72,0 4.8,1.36 2.12,1.32 3.36,3.68 1.24,2.32 1.24,5.36 0,3.04 -1.24,5.4 -1.24,2.36 -3.36,3.72 -2.12,1.36 -4.76,1.36 -1.4,0 -2.68,-0.4 -1.24,-0.44 -2.28,-1.16 -1.04,-0.72 -1.84,-1.68 -0.8,-1 -1.28,-2.16 l 0.72,-0.52 v 12.44 q 0,0.48 -0.36,0.84 -0.32,0.36 -0.84,0.36 -0.52,0 -0.88,-0.36 -0.32,-0.36 -0.32,-0.84 v -26.08 q 0,-0.52 0.32,-0.88 0.32,-0.36 0.88,-0.36 0.52,0 0.84,0.36 0.36,0.36 0.36,0.88 v 4.32 l -0.56,-0.32 q 0.4,-1.24 1.16,-2.2 0.8,-1 1.84,-1.68 1.04,-0.72 2.28,-1.08 1.24,-0.36 2.6,-0.36 z m -0.2,2.24 q -2.16,0 -3.8,1.08 -1.64,1.04 -2.6,2.88 -0.92,1.8 -0.92,4.2 0,2.36 0.92,4.24 0.96,1.88 2.6,2.96 1.64,1.04 3.8,1.04 2.12,0 3.72,-1.04 1.64,-1.08 2.6,-2.96 0.96,-1.88 0.96,-4.24 0,-2.36 -0.96,-4.2 -0.96,-1.84 -2.6,-2.88 -1.6,-1.08 -3.72,-1.08 z"
       id="path259" />
    <path
       d="m 586.6606,261.39569 q 0.52,0 0.84,0.36 0.36,0.36 0.36,0.88 v 18 q 0,0.48 -0.36,0.84 -0.36,0.36 -0.84,0.36 -0.52,0 -0.88,-0.36 -0.32,-0.36 -0.32,-0.84 v -4.76 l 0.68,-0.32 q 0,1.12 -0.64,2.28 -0.6,1.16 -1.68,2.16 -1.08,1 -2.56,1.64 -1.44,0.6 -3.12,0.6 -2.72,0 -4.88,-1.4 -2.12,-1.4 -3.36,-3.84 -1.2,-2.44 -1.2,-5.48 0,-3.12 1.24,-5.48 1.24,-2.4 3.36,-3.76 2.12,-1.36 4.8,-1.36 1.72,0 3.2,0.6 1.52,0.6 2.64,1.64 1.12,1.04 1.72,2.4 0.64,1.32 0.64,2.76 l -0.84,-0.6 v -5.08 q 0,-0.52 0.32,-0.88 0.36,-0.36 0.88,-0.36 z m -8.32,18.6 q 2.12,0 3.76,-1.08 1.64,-1.12 2.56,-3.04 0.96,-1.96 0.96,-4.36 0,-2.36 -0.96,-4.24 -0.92,-1.88 -2.56,-3 -1.64,-1.12 -3.76,-1.12 -2.08,0 -3.76,1.08 -1.64,1.08 -2.6,2.96 -0.92,1.88 -0.92,4.32 0,2.4 0.92,4.36 0.96,1.92 2.6,3.04 1.64,1.08 3.76,1.08 z"
       id="path261" />
    <path
       d="m 602.63935,260.91569 q 1.8,0 3.32,0.64 1.52,0.6 2.64,1.6 1.16,0.96 1.8,2.08 0.64,1.08 0.64,2.08 l -0.68,-0.96 v -3.72 q 0,-0.52 0.32,-0.88 0.36,-0.36 0.88,-0.36 0.56,0 0.88,0.36 0.32,0.36 0.32,0.88 v 17.32 q 0,3.2 -1.32,5.4 -1.32,2.2 -3.6,3.32 -2.24,1.16 -5.12,1.16 -1.4,0 -2.96,-0.36 -1.52,-0.36 -2.64,-0.92 -1.08,-0.56 -1.2,-1.16 -0.32,-0.36 -0.32,-0.72 0.04,-0.32 0.36,-0.56 0.4,-0.28 0.84,-0.08 0.44,0.24 1.32,0.6 0.4,0.12 1.08,0.36 0.68,0.24 1.6,0.4 0.96,0.2 2,0.2 3.6,0 5.56,-2.08 2,-2.04 2,-5.4 v -3.84 l 0.44,0.12 q -0.36,1.44 -1.2,2.52 -0.8,1.08 -1.92,1.84 -1.12,0.72 -2.44,1.08 -1.28,0.4 -2.56,0.4 -2.76,0 -4.96,-1.4 -2.2,-1.4 -3.52,-3.8 -1.28,-2.4 -1.28,-5.48 0,-3.04 1.28,-5.44 1.32,-2.44 3.48,-3.8 2.2,-1.4 4.96,-1.4 z m 0.28,2.24 q -2.2,0 -3.96,1.12 -1.72,1.08 -2.72,3 -0.96,1.88 -0.96,4.28 0,2.4 0.96,4.32 1,1.92 2.72,3.04 1.76,1.08 3.96,1.08 2.2,0 3.92,-1.08 1.72,-1.08 2.72,-2.96 1,-1.92 1,-4.4 0,-2.48 -1,-4.36 -1,-1.92 -2.72,-2.96 -1.72,-1.08 -3.92,-1.08 z"
       id="path263" />
    <path
       d="m 627.49998,282.23569 q -3.08,0 -5.44,-1.32 -2.36,-1.32 -3.68,-3.68 -1.32,-2.36 -1.32,-5.52 0,-3.4 1.32,-5.8 1.36,-2.4 3.48,-3.68 2.16,-1.32 4.56,-1.32 1.76,0 3.4,0.64 1.68,0.6 2.96,1.84 1.32,1.2 2.08,2.96 0.8,1.76 0.88,4.08 -0.04,0.48 -0.4,0.84 -0.36,0.32 -0.84,0.32 h -16.04 l -0.48,-2.16 h 15.76 l -0.52,0.48 v -0.8 q -0.16,-1.88 -1.2,-3.2 -1.04,-1.32 -2.52,-2 -1.48,-0.68 -3.08,-0.68 -1.2,0 -2.48,0.48 -1.24,0.48 -2.28,1.52 -1,1 -1.64,2.6 -0.64,1.56 -0.64,3.72 0,2.36 0.96,4.28 0.96,1.92 2.76,3.04 1.84,1.12 4.36,1.12 1.4,0 2.52,-0.4 1.12,-0.4 1.96,-1.04 0.84,-0.68 1.4,-1.4 0.44,-0.36 0.88,-0.36 0.4,0 0.68,0.32 0.32,0.32 0.32,0.72 0,0.48 -0.4,0.84 -1.2,1.44 -3.12,2.52 -1.92,1.04 -4.2,1.04 z"
       id="path265" />
  </g>
  <path
     d="m 330.31106,256.30617 c 0.12028,-0.21383 0.0187,-0.38757 -0.22631,-0.38757 l -4.2945,0.002 c -0.24502,0 -0.54795,0.17285 -0.67179,0.38402 l -10.5224,17.79898 c -1.46833,2.419 -3.51757,2.95358 -5.48662,2.7148 -3.38035,-0.40984 -5.19795,-2.89121 -5.19795,-6.19584 0,-3.31887 2.70055,-6.01941 6.01943,-6.01941 h 6.6823 c 0.24502,0 0.54528,-0.17374 0.66646,-0.38669 l 2.4083,-4.2054 c 0.12206,-0.21294 0.0205,-0.38668 -0.22453,-0.38668 h -9.53343 c -6.06396,0 -10.99818,4.93333 -10.99818,10.99818 0,2.93042 1.14491,6.09071 3.22711,8.15599 2.05192,2.03497 4.79344,2.78072 7.7194,2.84131 1.65186,0.0187 6.18871,-0.0187 8.31546,-3.80268 2.38158,-4.23836 12.11725,-21.51167 12.11725,-21.51167 z m 15.62947,6.24485 c -2.05192,-2.035 -4.79344,-2.78075 -7.7194,-2.84133 -1.65187,-0.0187 -6.18871,0.0187 -8.31546,3.80268 -2.38069,4.23658 -12.11726,21.5099 -12.11726,21.5099 -0.12027,0.21384 -0.0187,0.38757 0.22631,0.38757 l 4.2945,-0.002 c 0.24502,0 0.54796,-0.17285 0.6718,-0.38401 l 10.5224,-17.79899 c 1.46832,-2.41899 3.51757,-2.95358 5.48662,-2.71479 3.38035,0.40984 5.19794,2.89121 5.19794,6.19583 0,3.31887 -2.70055,6.01941 -6.01942,6.01941 h -6.6823 c -0.24502,0 -0.54528,0.17375 -0.66646,0.38669 l -2.4083,4.2054 c -0.12206,0.21294 -0.0204,0.38668 0.22453,0.38668 h 9.53342 c 6.06397,0 10.99819,-4.93333 10.99819,-10.99818 0,-2.92864 -1.14492,-6.08892 -3.22711,-8.1542 z"
     id="path977"
     style="stroke-width:0.0890978" />
</svg>
