<?xml version="1.0" encoding="UTF-8" standalone="no"?>
<svg
   xmlns:dc="http://purl.org/dc/elements/1.1/"
   xmlns:cc="http://creativecommons.org/ns#"
   xmlns:rdf="http://www.w3.org/1999/02/22-rdf-syntax-ns#"
   xmlns:svg="http://www.w3.org/2000/svg"
   xmlns="http://www.w3.org/2000/svg"
   xmlns:sodipodi="http://sodipodi.sourceforge.net/DTD/sodipodi-0.dtd"
   xmlns:inkscape="http://www.inkscape.org/namespaces/inkscape"
   viewBox="0 0 720 320"
   version="1.1"
   id="svg40"
   sodipodi:docname="logo-full-text.svg"
   width="720"
   height="320"
   inkscape:version="1.0.1 (c497b03c, 2020-09-10)">
  <metadata
     id="metadata46">
    <rdf:RDF>
      <cc:Work
         rdf:about="">
        <dc:format>image/svg+xml</dc:format>
        <dc:type
           rdf:resource="http://purl.org/dc/dcmitype/StillImage" />
        <dc:title />
      </cc:Work>
    </rdf:RDF>
  </metadata>
  <defs
     id="defs44" />
  <sodipodi:namedview
     pagecolor="#ffffff"
     bordercolor="#666666"
     borderopacity="1"
     objecttolerance="10"
     gridtolerance="10"
     guidetolerance="10"
     inkscape:pageopacity="0"
     inkscape:pageshadow="2"
     inkscape:window-width="1680"
     inkscape:window-height="940"
     id="namedview42"
     showgrid="false"
     inkscape:zoom="0.98476907"
     inkscape:cx="378.535"
     inkscape:cy="196.30821"
     inkscape:window-x="0"
     inkscape:window-y="25"
     inkscape:window-maximized="1"
     inkscape:current-layer="svg40"
     inkscape:document-rotation="0" />
  <path
     d="m 32.08576,34.885076 c -3.318775,0 -6.034135,2.71536 -6.034135,6.034135 v 44.250318 c 0,3.318773 2.71536,6.034134 6.034135,6.034134 h 4.022755 c 3.318774,0 6.034135,-2.715361 6.034135,-6.034134 V 62.340191 L 64.267809,84.465349 48.629541,100.10362 c -2.36337,2.36337 -2.36337,6.18499 0,8.54835 l 2.865821,2.86582 c 2.363369,2.36337 6.184987,2.36337 8.548357,0 l 15.638269,-15.638262 9.65815,9.658152 c -17.130414,13.21751 -27.812606,31.90486 -27.812606,52.6268 0,16.60127 6.935909,31.80728 18.438286,44.04898 -5.193498,13.74138 -15.998259,25.39065 -16.17254,25.53017 -2.300474,2.44135 -2.92831,5.99875 -1.603799,9.06789 1.324519,3.06914 4.322234,5.05693 7.66838,5.05693 21.436247,0 38.341231,-8.96342 48.484231,-16.14799 7.70101,2.41798 15.84799,4.04327 24.34671,4.68176 v 17.68893 h -26.14792 c -3.31877,0 -6.03413,2.71536 -6.03413,6.03414 v 4.02275 c 0,3.31877 2.71536,6.03413 6.03413,6.03413 h 26.14792 v 22.12517 c 0,3.31877 2.71535,6.03412 6.03412,6.03412 h 4.02276 c 3.31878,0 6.03414,-2.71535 6.03414,-6.03412 v -22.12517 h 26.14791 c 3.31878,0 6.03414,-2.71536 6.03414,-6.03413 v -4.02275 c 0,-3.31878 -2.71536,-6.03414 -6.03414,-6.03414 h -26.14791 v -17.67813 c 45.52537,-3.29724 81.2084,-34.37431 81.2084,-72.24854 0,-20.73264 -10.6932,-39.42874 -27.83912,-52.64743 l 43.17686,-43.176859 v 22.829338 c 0,3.318773 2.71537,6.034134 6.03414,6.034134 h 4.02276 c 3.31878,0 6.03413,-2.715361 6.03413,-6.034134 V 40.919211 c 0,-3.318775 -2.71535,-6.034135 -6.03413,-6.034135 h -44.25032 c -3.31878,0 -6.03414,2.71536 -6.03414,6.034135 v 4.022755 c 0,3.318774 2.71536,6.034135 6.03414,6.034135 h 22.82934 l -45.74706,45.747065 c -13.74594,-7.03126 -30.01462,-11.101862 -47.45695,-11.101862 -17.45555,0 -33.73583,4.076486 -47.48835,11.117576 L 86.99599,84.465349 102.63426,68.827082 c 2.36337,-2.36337 2.36337,-6.184988 0,-8.548357 l -2.865823,-2.866803 c -2.36337,-2.36337 -6.184988,-2.36337 -8.548357,0 L 75.631899,73.10126 53.50674,50.976101 h 22.829339 c 3.318773,0 6.034133,-2.715361 6.034133,-6.034135 v -4.022755 c 0,-3.318775 -2.71536,-6.034135 -6.034133,-6.034135 z m 114.61319,66.914664 c 40.01218,0 72.57265,25.93882 72.57265,57.78783 0,31.84901 -32.56047,57.78783 -72.57265,57.78783 -9.1688,0 -18.24001,-1.41159 -26.95521,-4.20249 l -4.92434,-1.57629 -4.21231,3.02099 c -7.45165,5.35194 -18.95302,11.5904 -33.240769,13.00226 3.887818,-4.95794 9.65449,-13.26536 13.218329,-22.85291 l 2.301102,-6.1402 -4.439177,-4.79372 C 79.0834,183.78584 74.126312,171.93317 74.126312,159.58757 c 0,-31.84902 32.560448,-57.78783 72.572638,-57.78783 z"
     id="path38"
     style="stroke-width:0.502844" />
  <text
     xml:space="preserve"
     style="font-style:normal;font-variant:normal;font-weight:bold;font-stretch:normal;font-size:64px;line-height:1.1;font-family:'Quicksand Light';-inkscape-font-specification:'Quicksand Light, Bold';fill:#000000;fill-opacity:1;stroke:none"
     x="293.46982"
     y="92.809578"
     id="text72"><tspan
       sodipodi:role="line"
       x="293.46982"
       y="92.809578"
       id="tspan110">Conselho</tspan><tspan
       sodipodi:role="line"
       x="293.46982"
       y="163.20958"
       id="tspan524">da Língua</tspan><tspan
       sodipodi:role="line"
       x="293.46982"
       y="233.60959"
       id="tspan526">Neutra</tspan></text>
  <text
     xml:space="preserve"
     style="font-style:normal;font-weight:normal;font-size:40px;line-height:1.25;font-family:sans-serif;fill:#000000;fill-opacity:1;stroke:none"
     x="305.65543"
     y="111.70132"
     id="text78"><tspan
       sodipodi:role="line"
       id="tspan76"
       x="305.65543"
       y="111.70132" /></text>
  <text
     xml:space="preserve"
     style="font-style:normal;font-variant:normal;font-weight:normal;font-stretch:normal;font-size:40px;line-height:1.25;font-family:'Quicksand Light';-inkscape-font-specification:'Quicksand Light, ';fill:#000000;fill-opacity:1;stroke:none"
     x="360.4906"
     y="281.83569"
     id="text84"><tspan
       sodipodi:role="line"
       id="tspan82"
       x="360.4906"
       y="281.83569">pronouns.page</tspan></text>
  <path
     d="m 330.31106,256.30617 c 0.12028,-0.21383 0.0187,-0.38757 -0.22631,-0.38757 l -4.2945,0.002 c -0.24502,0 -0.54795,0.17285 -0.67179,0.38402 l -10.5224,17.79898 c -1.46833,2.419 -3.51757,2.95358 -5.48662,2.7148 -3.38035,-0.40984 -5.19795,-2.89121 -5.19795,-6.19584 0,-3.31887 2.70055,-6.01941 6.01943,-6.01941 h 6.6823 c 0.24502,0 0.54528,-0.17374 0.66646,-0.38669 l 2.4083,-4.2054 c 0.12206,-0.21294 0.0205,-0.38668 -0.22453,-0.38668 h -9.53343 c -6.06396,0 -10.99818,4.93333 -10.99818,10.99818 0,2.93042 1.14491,6.09071 3.22711,8.15599 2.05192,2.03497 4.79344,2.78072 7.7194,2.84131 1.65186,0.0187 6.18871,-0.0187 8.31546,-3.80268 2.38158,-4.23836 12.11725,-21.51167 12.11725,-21.51167 z m 15.62947,6.24485 c -2.05192,-2.035 -4.79344,-2.78075 -7.7194,-2.84133 -1.65187,-0.0187 -6.18871,0.0187 -8.31546,3.80268 -2.38069,4.23658 -12.11726,21.5099 -12.11726,21.5099 -0.12027,0.21384 -0.0187,0.38757 0.22631,0.38757 l 4.2945,-0.002 c 0.24502,0 0.54796,-0.17285 0.6718,-0.38401 l 10.5224,-17.79899 c 1.46832,-2.41899 3.51757,-2.95358 5.48662,-2.71479 3.38035,0.40984 5.19794,2.89121 5.19794,6.19583 0,3.31887 -2.70055,6.01941 -6.01942,6.01941 h -6.6823 c -0.24502,0 -0.54528,0.17375 -0.66646,0.38669 l -2.4083,4.2054 c -0.12206,0.21294 -0.0204,0.38668 0.22453,0.38668 h 9.53342 c 6.06397,0 10.99819,-4.93333 10.99819,-10.99818 0,-2.92864 -1.14492,-6.08892 -3.22711,-8.1542 z"
     id="path977"
     style="stroke-width:0.0890978" />
</svg>
