<?xml version="1.0" encoding="UTF-8" standalone="no"?>
<svg
   xmlns:dc="http://purl.org/dc/elements/1.1/"
   xmlns:cc="http://creativecommons.org/ns#"
   xmlns:rdf="http://www.w3.org/1999/02/22-rdf-syntax-ns#"
   xmlns:svg="http://www.w3.org/2000/svg"
   xmlns="http://www.w3.org/2000/svg"
   xmlns:sodipodi="http://sodipodi.sourceforge.net/DTD/sodipodi-0.dtd"
   xmlns:inkscape="http://www.inkscape.org/namespaces/inkscape"
   viewBox="0 0 720 320"
   version="1.1"
   id="svg40"
   sodipodi:docname="logo-full.svg"
   width="720"
   height="320"
   inkscape:version="1.0.1 (c497b03c, 2020-09-10)"
   inkscape:export-filename="/Users/andrea/Projects/Zaimki/locale/pl/img/logo/logo-full.png"
   inkscape:export-xdpi="12.1"
   inkscape:export-ydpi="12.1">
  <metadata
     id="metadata46">
    <rdf:RDF>
      <cc:Work
         rdf:about="">
        <dc:format>image/svg+xml</dc:format>
        <dc:type
           rdf:resource="http://purl.org/dc/dcmitype/StillImage" />
        <dc:title />
      </cc:Work>
    </rdf:RDF>
  </metadata>
  <defs
     id="defs44" />
  <sodipodi:namedview
     pagecolor="#ffffff"
     bordercolor="#666666"
     borderopacity="1"
     objecttolerance="10"
     gridtolerance="10"
     guidetolerance="10"
     inkscape:pageopacity="0"
     inkscape:pageshadow="2"
     inkscape:window-width="1680"
     inkscape:window-height="939"
     id="namedview42"
     showgrid="false"
     inkscape:zoom="0.98476907"
     inkscape:cx="274.18328"
     inkscape:cy="195.29274"
     inkscape:window-x="2560"
     inkscape:window-y="615"
     inkscape:window-maximized="1"
     inkscape:current-layer="svg40"
     inkscape:document-rotation="0" />
  <path
     d="m 32.08576,34.885076 c -3.318775,0 -6.034135,2.71536 -6.034135,6.034135 v 44.250318 c 0,3.318773 2.71536,6.034134 6.034135,6.034134 h 4.022755 c 3.318774,0 6.034135,-2.715361 6.034135,-6.034134 V 62.340191 L 64.267809,84.465349 48.629541,100.10362 c -2.36337,2.36337 -2.36337,6.18499 0,8.54835 l 2.865821,2.86582 c 2.363369,2.36337 6.184987,2.36337 8.548357,0 l 15.638269,-15.638262 9.65815,9.658152 c -17.130414,13.21751 -27.812606,31.90486 -27.812606,52.6268 0,16.60127 6.935909,31.80728 18.438286,44.04898 -5.193498,13.74138 -15.998259,25.39065 -16.17254,25.53017 -2.300474,2.44135 -2.92831,5.99875 -1.603799,9.06789 1.324519,3.06914 4.322234,5.05693 7.66838,5.05693 21.436247,0 38.341231,-8.96342 48.484231,-16.14799 7.70101,2.41798 15.84799,4.04327 24.34671,4.68176 v 17.68893 h -26.14792 c -3.31877,0 -6.03413,2.71536 -6.03413,6.03414 v 4.02275 c 0,3.31877 2.71536,6.03413 6.03413,6.03413 h 26.14792 v 22.12517 c 0,3.31877 2.71535,6.03412 6.03412,6.03412 h 4.02276 c 3.31878,0 6.03414,-2.71535 6.03414,-6.03412 v -22.12517 h 26.14791 c 3.31878,0 6.03414,-2.71536 6.03414,-6.03413 v -4.02275 c 0,-3.31878 -2.71536,-6.03414 -6.03414,-6.03414 h -26.14791 v -17.67813 c 45.52537,-3.29724 81.2084,-34.37431 81.2084,-72.24854 0,-20.73264 -10.6932,-39.42874 -27.83912,-52.64743 l 43.17686,-43.176859 v 22.829338 c 0,3.318773 2.71537,6.034134 6.03414,6.034134 h 4.02276 c 3.31878,0 6.03413,-2.715361 6.03413,-6.034134 V 40.919211 c 0,-3.318775 -2.71535,-6.034135 -6.03413,-6.034135 h -44.25032 c -3.31878,0 -6.03414,2.71536 -6.03414,6.034135 v 4.022755 c 0,3.318774 2.71536,6.034135 6.03414,6.034135 h 22.82934 l -45.74706,45.747065 c -13.74594,-7.03126 -30.01462,-11.101862 -47.45695,-11.101862 -17.45555,0 -33.73583,4.076486 -47.48835,11.117576 L 86.99599,84.465349 102.63426,68.827082 c 2.36337,-2.36337 2.36337,-6.184988 0,-8.548357 l -2.865823,-2.866803 c -2.36337,-2.36337 -6.184988,-2.36337 -8.548357,0 L 75.631899,73.10126 53.50674,50.976101 h 22.829339 c 3.318773,0 6.034133,-2.715361 6.034133,-6.034135 v -4.022755 c 0,-3.318775 -2.71536,-6.034135 -6.034133,-6.034135 z m 114.61319,66.914664 c 40.01218,0 72.57265,25.93882 72.57265,57.78783 0,31.84901 -32.56047,57.78783 -72.57265,57.78783 -9.1688,0 -18.24001,-1.41159 -26.95521,-4.20249 l -4.92434,-1.57629 -4.21231,3.02099 c -7.45165,5.35194 -18.95302,11.5904 -33.240769,13.00226 3.887818,-4.95794 9.65449,-13.26536 13.218329,-22.85291 l 2.301102,-6.1402 -4.439177,-4.79372 C 79.0834,183.78584 74.126312,171.93317 74.126312,159.58757 c 0,-31.84902 32.560448,-57.78783 72.572638,-57.78783 z"
     id="path38"
     style="stroke-width:0.502844" />
  <text
     xml:space="preserve"
     style="font-style:normal;font-variant:normal;font-weight:bold;font-stretch:normal;font-size:64px;line-height:1.25;font-family:'Quicksand Light';-inkscape-font-specification:'Quicksand Light, Bold';fill:#000000;fill-opacity:1;stroke:none"
     x="293.46982"
     y="118.80958"
     id="text72"><tspan
       sodipodi:role="line"
       x="293.46982"
       y="118.80958"
       id="tspan74">Rada Języka</tspan><tspan
       sodipodi:role="line"
       x="293.46982"
       y="198.80959"
       id="tspan80">Neutralnego</tspan></text>
  <text
     xml:space="preserve"
     style="font-style:normal;font-weight:normal;font-size:40px;line-height:1.25;font-family:sans-serif;fill:#000000;fill-opacity:1;stroke:none"
     x="305.65543"
     y="111.70132"
     id="text78"><tspan
       sodipodi:role="line"
       id="tspan76"
       x="305.65543"
       y="111.70132" /></text>
  <text
     xml:space="preserve"
     style="font-style:normal;font-variant:normal;font-weight:normal;font-stretch:normal;font-size:40px;line-height:1.25;font-family:'Quicksand Light';-inkscape-font-specification:'Quicksand Light, ';fill:#000000;fill-opacity:1;stroke:none"
     x="360.4906"
     y="253.83569"
     id="text84"><tspan
       sodipodi:role="line"
       id="tspan82"
       x="360.4906"
       y="253.83569">zaimki.pl</tspan></text>
  <path
     d="m 331.51173,230.50914 c 0.10735,-0.19085 0.0167,-0.34592 -0.20199,-0.34592 l -3.83285,0.002 c -0.21868,0 -0.48904,0.15428 -0.59958,0.34273 l -9.39128,15.88566 c -1.31048,2.15896 -3.13944,2.63608 -4.89683,2.42298 -3.01697,-0.3658 -4.63918,-2.58043 -4.63918,-5.52981 0,-2.96212 2.41024,-5.37236 5.37235,-5.37236 h 5.96398 c 0.21868,0 0.48667,-0.15506 0.59482,-0.34511 l 2.14942,-3.75333 c 0.10894,-0.19006 0.0183,-0.34512 -0.2004,-0.34512 h -8.50861 c -5.41212,0 -9.81592,4.40301 -9.81592,9.81592 0,2.6154 1.02182,5.43597 2.8802,7.27924 1.83134,1.81623 4.27817,2.4818 6.8896,2.53588 1.47429,0.0167 5.52344,-0.0167 7.42157,-3.3939 2.12557,-3.78275 10.8147,-19.19925 10.8147,-19.19925 z m 13.94935,5.57353 c -1.83134,-1.81623 -4.27817,-2.48181 -6.88959,-2.53588 -1.4743,-0.0167 -5.52345,0.0167 -7.42158,3.39389 -2.12476,3.78117 -10.81468,19.19767 -10.81468,19.19767 -0.10735,0.19084 -0.0167,0.34591 0.20197,0.34591 l 3.83285,-0.002 c 0.21869,0 0.48905,-0.15428 0.59958,-0.34273 l 9.39129,-15.88566 c 1.31049,-2.15896 3.13943,-2.63608 4.89682,-2.42297 3.01699,0.36579 4.63918,2.58041 4.63918,5.5298 0,2.96211 -2.41024,5.37235 -5.37235,5.37235 h -5.96398 c -0.21868,0 -0.48666,0.15507 -0.59481,0.34513 l -2.14941,3.75332 c -0.10894,0.19005 -0.0183,0.34512 0.20038,0.34512 h 8.50861 c 5.41212,0 9.81592,-4.40301 9.81592,-9.81592 0,-2.61381 -1.02182,-5.43438 -2.8802,-7.27765 z"
     id="path1574"
     style="stroke-width:0.0795197" />
</svg>
