<?xml version="1.0" encoding="UTF-8" standalone="no"?>
<svg
   xmlns:dc="http://purl.org/dc/elements/1.1/"
   xmlns:cc="http://creativecommons.org/ns#"
   xmlns:rdf="http://www.w3.org/1999/02/22-rdf-syntax-ns#"
   xmlns:svg="http://www.w3.org/2000/svg"
   xmlns="http://www.w3.org/2000/svg"
   xmlns:sodipodi="http://sodipodi.sourceforge.net/DTD/sodipodi-0.dtd"
   xmlns:inkscape="http://www.inkscape.org/namespaces/inkscape"
   viewBox="0 0 720 320"
   version="1.1"
   id="svg40"
   sodipodi:docname="logo-full.svg"
   width="720"
   height="320"
   inkscape:version="1.0.1 (c497b03c, 2020-09-10)"
   inkscape:export-filename="/Users/andrea/Projects/Zaimki/locale/pl/img/logo/logo-full.png"
   inkscape:export-xdpi="12.1"
   inkscape:export-ydpi="12.1">
  <metadata
     id="metadata46">
    <rdf:RDF>
      <cc:Work
         rdf:about="">
        <dc:format>image/svg+xml</dc:format>
        <dc:type
           rdf:resource="http://purl.org/dc/dcmitype/StillImage" />
        <dc:title />
      </cc:Work>
    </rdf:RDF>
  </metadata>
  <defs
     id="defs44" />
  <sodipodi:namedview
     pagecolor="#ffffff"
     bordercolor="#666666"
     borderopacity="1"
     objecttolerance="10"
     gridtolerance="10"
     guidetolerance="10"
     inkscape:pageopacity="0"
     inkscape:pageshadow="2"
     inkscape:window-width="1680"
     inkscape:window-height="939"
     id="namedview42"
     showgrid="false"
     inkscape:zoom="0.98476907"
     inkscape:cx="274.18328"
     inkscape:cy="195.29274"
     inkscape:window-x="0"
     inkscape:window-y="25"
     inkscape:window-maximized="1"
     inkscape:current-layer="svg40"
     inkscape:document-rotation="0" />
  <path
     d="m 32.08576,34.885076 c -3.318775,0 -6.034135,2.71536 -6.034135,6.034135 v 44.250318 c 0,3.318773 2.71536,6.034134 6.034135,6.034134 h 4.022755 c 3.318774,0 6.034135,-2.715361 6.034135,-6.034134 V 62.340191 L 64.267809,84.465349 48.629541,100.10362 c -2.36337,2.36337 -2.36337,6.18499 0,8.54835 l 2.865821,2.86582 c 2.363369,2.36337 6.184987,2.36337 8.548357,0 l 15.638269,-15.638262 9.65815,9.658152 c -17.130414,13.21751 -27.812606,31.90486 -27.812606,52.6268 0,16.60127 6.935909,31.80728 18.438286,44.04898 -5.193498,13.74138 -15.998259,25.39065 -16.17254,25.53017 -2.300474,2.44135 -2.92831,5.99875 -1.603799,9.06789 1.324519,3.06914 4.322234,5.05693 7.66838,5.05693 21.436247,0 38.341231,-8.96342 48.484231,-16.14799 7.70101,2.41798 15.84799,4.04327 24.34671,4.68176 v 17.68893 h -26.14792 c -3.31877,0 -6.03413,2.71536 -6.03413,6.03414 v 4.02275 c 0,3.31877 2.71536,6.03413 6.03413,6.03413 h 26.14792 v 22.12517 c 0,3.31877 2.71535,6.03412 6.03412,6.03412 h 4.02276 c 3.31878,0 6.03414,-2.71535 6.03414,-6.03412 v -22.12517 h 26.14791 c 3.31878,0 6.03414,-2.71536 6.03414,-6.03413 v -4.02275 c 0,-3.31878 -2.71536,-6.03414 -6.03414,-6.03414 h -26.14791 v -17.67813 c 45.52537,-3.29724 81.2084,-34.37431 81.2084,-72.24854 0,-20.73264 -10.6932,-39.42874 -27.83912,-52.64743 l 43.17686,-43.176859 v 22.829338 c 0,3.318773 2.71537,6.034134 6.03414,6.034134 h 4.02276 c 3.31878,0 6.03413,-2.715361 6.03413,-6.034134 V 40.919211 c 0,-3.318775 -2.71535,-6.034135 -6.03413,-6.034135 h -44.25032 c -3.31878,0 -6.03414,2.71536 -6.03414,6.034135 v 4.022755 c 0,3.318774 2.71536,6.034135 6.03414,6.034135 h 22.82934 l -45.74706,45.747065 c -13.74594,-7.03126 -30.01462,-11.101862 -47.45695,-11.101862 -17.45555,0 -33.73583,4.076486 -47.48835,11.117576 L 86.99599,84.465349 102.63426,68.827082 c 2.36337,-2.36337 2.36337,-6.184988 0,-8.548357 l -2.865823,-2.866803 c -2.36337,-2.36337 -6.184988,-2.36337 -8.548357,0 L 75.631899,73.10126 53.50674,50.976101 h 22.829339 c 3.318773,0 6.034133,-2.715361 6.034133,-6.034135 v -4.022755 c 0,-3.318775 -2.71536,-6.034135 -6.034133,-6.034135 z m 114.61319,66.914664 c 40.01218,0 72.57265,25.93882 72.57265,57.78783 0,31.84901 -32.56047,57.78783 -72.57265,57.78783 -9.1688,0 -18.24001,-1.41159 -26.95521,-4.20249 l -4.92434,-1.57629 -4.21231,3.02099 c -7.45165,5.35194 -18.95302,11.5904 -33.240769,13.00226 3.887818,-4.95794 9.65449,-13.26536 13.218329,-22.85291 l 2.301102,-6.1402 -4.439177,-4.79372 C 79.0834,183.78584 74.126312,171.93317 74.126312,159.58757 c 0,-31.84902 32.560448,-57.78783 72.572638,-57.78783 z"
     id="path38"
     style="stroke-width:0.502844" />
  <g
     aria-label="Rada Języka
Neutralnego"
     id="text72"
     style="font-style:normal;font-variant:normal;font-weight:bold;font-stretch:normal;font-size:64px;line-height:1.25;font-family:'Quicksand Light';-inkscape-font-specification:'Quicksand Light, Bold';fill:#000000;fill-opacity:1;stroke:none">
    <path
       d="m 302.87782,118.80958 q -1.792,0 -3.2,-1.088 -1.408,-1.152 -1.408,-2.816 V 77.913578 q 0,-1.664 1.088,-2.752 1.152,-1.152 2.816,-1.152 h 18.432 q 3.328,0 6.208,1.792 2.944,1.728 4.736,4.864 1.792,3.072 1.792,7.104 0,2.432 -1.024,4.736 -0.96,2.304 -2.688,4.16 -1.664,1.856 -3.776,2.88 l 0.064,-1.472 q 1.792,0.96 2.944,2.304002 1.216,1.28 1.856,2.816 0.704,1.472 0.832,3.2 0.256,1.6 0.32,2.816 0.128,1.216 0.384,2.048 0.32,0.832 1.152,1.28 1.408,0.832 1.728,2.432 0.384,1.536 -0.704,2.752 -0.704,0.832 -1.792,1.088 -1.088,0.192 -2.176,0 -1.088,-0.256 -1.792,-0.64 -1.088,-0.64 -2.176,-1.856 -1.088,-1.28 -1.792,-3.392 -0.64,-2.112 -0.64,-5.44 0,-1.088 -0.384,-1.984 -0.384,-0.96 -1.088,-1.6 -0.704,-0.704 -1.792,-1.024 -1.088,-0.384 -2.56,-0.384 h -12.928 l 0.96,-1.472 v 13.888 q 0,1.664 -0.896,2.816 -0.896,1.088 -2.496,1.088 z m 2.496,-22.912002 h 14.912 q 1.152,0 2.24,-1.024 1.088,-1.088 1.792,-2.88 0.704,-1.856 0.704,-4.032 0,-2.816 -1.536,-4.672 -1.472,-1.92 -3.2,-1.92 h -14.784 l 0.768,-2.048 v 18.112 z"
       id="path940" />
    <path
       d="m 369.91182,83.929578 q 1.664,0 2.752,1.088 1.088,1.088 1.088,2.816 v 27.072002 q 0,1.664 -1.088,2.816 -1.088,1.088 -2.752,1.088 -1.664,0 -2.752,-1.088 -1.088,-1.152 -1.088,-2.816 v -3.136 l 1.408,0.576 q 0,0.832 -0.896,2.048 -0.896,1.152 -2.432,2.304 -1.536,1.152 -3.648,1.984 -2.048,0.768 -4.48,0.768 -4.416,0 -8,-2.24 -3.584,-2.304 -5.696,-6.272 -2.048,-4.032 -2.048,-9.216 0,-5.248002 2.048,-9.216002 2.112,-4.032 5.632,-6.272 3.52,-2.304 7.808,-2.304 2.752,0 5.056,0.832 2.304,0.832 3.968,2.112 1.728,1.28 2.624,2.624 0.96,1.28 0.96,2.176 l -2.304,0.832 v -4.672 q 0,-1.664 1.088,-2.752 1.088,-1.152 2.752,-1.152 z m -12.928,28.480002 q 2.816,0 4.928,-1.408 2.112,-1.408 3.264,-3.84 1.216,-2.432 1.216,-5.44 0,-3.072002 -1.216,-5.504002 -1.152,-2.432 -3.264,-3.84 -2.112,-1.408 -4.928,-1.408 -2.752,0 -4.864,1.408 -2.112,1.408 -3.328,3.84 -1.152,2.432 -1.152,5.504002 0,3.008 1.152,5.44 1.216,2.432 3.328,3.84 2.112,1.408 4.864,1.408 z"
       id="path942" />
    <path
       d="m 410.16182,71.449578 q 1.664,0 2.752,1.088 1.088,1.088 1.088,2.816 v 39.552002 q 0,1.664 -1.088,2.816 -1.088,1.088 -2.752,1.088 -1.664,0 -2.752,-1.088 -1.088,-1.152 -1.088,-2.816 v -3.136 l 1.408,0.576 q 0,0.832 -0.896,2.048 -0.896,1.152 -2.432,2.304 -1.536,1.152 -3.648,1.984 -2.048,0.768 -4.48,0.768 -4.416,0 -8,-2.24 -3.584,-2.304 -5.696,-6.272 -2.048,-4.032 -2.048,-9.216 0,-5.248002 2.048,-9.216002 2.112,-4.032 5.632,-6.272 3.52,-2.304 7.808,-2.304 2.752,0 5.056,0.832 2.304,0.832 3.968,2.112 1.728,1.28 2.624,2.624 0.96,1.28 0.96,2.176 l -2.304,0.832 v -17.152 q 0,-1.664 1.088,-2.752 1.088,-1.152 2.752,-1.152 z m -12.928,40.960002 q 2.816,0 4.928,-1.408 2.112,-1.408 3.264,-3.84 1.216,-2.432 1.216,-5.44 0,-3.072002 -1.216,-5.504002 -1.152,-2.432 -3.264,-3.84 -2.112,-1.408 -4.928,-1.408 -2.752,0 -4.864,1.408 -2.112,1.408 -3.328,3.84 -1.152,2.432 -1.152,5.504002 0,3.008 1.152,5.44 1.216,2.432 3.328,3.84 2.112,1.408 4.864,1.408 z"
       id="path944" />
    <path
       d="m 450.41182,83.929578 q 1.664,0 2.752,1.088 1.088,1.088 1.088,2.816 v 27.072002 q 0,1.664 -1.088,2.816 -1.088,1.088 -2.752,1.088 -1.664,0 -2.752,-1.088 -1.088,-1.152 -1.088,-2.816 v -3.136 l 1.408,0.576 q 0,0.832 -0.896,2.048 -0.896,1.152 -2.432,2.304 -1.536,1.152 -3.648,1.984 -2.048,0.768 -4.48,0.768 -4.416,0 -8,-2.24 -3.584,-2.304 -5.696,-6.272 -2.048,-4.032 -2.048,-9.216 0,-5.248002 2.048,-9.216002 2.112,-4.032 5.632,-6.272 3.52,-2.304 7.808,-2.304 2.752,0 5.056,0.832 2.304,0.832 3.968,2.112 1.728,1.28 2.624,2.624 0.96,1.28 0.96,2.176 l -2.304,0.832 v -4.672 q 0,-1.664 1.088,-2.752 1.088,-1.152 2.752,-1.152 z m -12.928,28.480002 q 2.816,0 4.928,-1.408 2.112,-1.408 3.264,-3.84 1.216,-2.432 1.216,-5.44 0,-3.072002 -1.216,-5.504002 -1.152,-2.432 -3.264,-3.84 -2.112,-1.408 -4.928,-1.408 -2.752,0 -4.864,1.408 -2.112,1.408 -3.328,3.84 -1.152,2.432 -1.152,5.504002 0,3.008 1.152,5.44 1.216,2.432 3.328,3.84 2.112,1.408 4.864,1.408 z"
       id="path946" />
    <path
       d="m 491.57682,119.44958 q -3.648,0 -6.784,-1.472 -3.136,-1.472 -5.12,-4.224 -0.768,-1.152 -0.768,-2.24 0,-1.6 1.216,-2.688 1.28,-1.088 2.496,-1.088 0.96,0 1.856,0.576 0.96,0.576 1.728,1.344 1.28,1.152 2.496,1.664 1.28,0.448 2.88,0.448 1.92,0 3.584,-0.96 1.664,-0.96 2.688,-2.56 1.024,-1.6 1.024,-3.456 V 77.913578 q 0,-1.664 1.216,-2.752 1.216,-1.152 2.816,-1.152 1.792,0 2.88,1.152 1.088,1.088 1.088,2.752 v 26.880002 q 0,3.904 -2.048,7.232 -2.048,3.328 -5.504,5.376 -3.456,2.048 -7.744,2.048 z"
       id="path948" />
    <path
       d="m 538.34382,132.05758 q -2.112,0 -3.84,-0.768 -1.728,-0.704 -2.816,-2.24 -1.024,-1.472 -1.024,-3.84 0,-2.624 1.088,-4.416 1.088,-1.728 2.816,-2.88 1.792,-1.152 3.84,-1.856 2.048,-0.768 3.968,-1.28 l -5.184,3.904 q -1.216,0.32 -2.56,0.512 -1.344,0.256 -2.624,0.256 -5.44,0 -9.472,-2.24 -3.968,-2.304 -6.144,-6.208 -2.112,-3.904 -2.112,-8.832 0,-5.760002 2.304,-9.792002 2.368,-4.096 6.144,-6.272 3.776,-2.176 8,-2.176 3.264,0 6.144,1.344 2.944,1.344 5.184,3.712 2.24,2.304 3.52,5.376 1.344,3.072 1.344,6.528002 -0.064,1.536 -1.216,2.496 -1.152,0.96 -2.688,0.96 h -24.448 l -1.92,-6.400002 h 23.68 l -1.6,1.344 v -1.792 q -0.128,-1.856 -1.344,-3.328 -1.152,-1.472 -2.944,-2.304 -1.728,-0.896 -3.712,-0.896 -2.56,0 -4.608,0.96 -2.048,0.896 -3.264,3.264 -1.216,2.304 -1.216,6.464002 0,3.456 1.408,5.888 1.472,2.368 3.712,3.648 2.304,1.216 4.864,1.216 2.368,0 3.776,-0.384 1.408,-0.384 2.24,-0.896 0.896,-0.576 1.6,-0.96 1.152,-0.64 2.176,-0.64 1.664,0 2.56,1.216 0.896,1.216 0.896,2.304 0,0.64 -0.384,1.408 -0.32,0.768 -1.472,1.536 -1.6,1.088 -3.008,2.304 -1.344,1.216 -2.176,2.56 -0.832,1.408 -0.832,2.944 0,1.152 0.576,1.728 0.64,0.576 1.408,0.576 0.768,0 1.344,-0.768 0.576,-0.768 1.344,-0.96 0.832,-0.192 1.28,-0.192 1.152,0 1.984,0.768 0.832,0.832 0.832,2.304 0,1.024 -1.088,2.112 -1.024,1.152 -2.752,1.92 -1.664,0.768 -3.584,0.768 z"
       id="path950" />
    <path
       d="m 575.45382,111.76958 q 1.536,0 2.56,1.024 1.024,0.96 1.024,2.496 0,1.472 -1.024,2.496 -1.024,1.024 -2.56,1.024 h -20.608 q -1.6,0 -2.56,-1.152 -0.96,-1.152 -0.896,-2.304 0.064,-0.96 0.256,-1.664 0.192,-0.768 0.96,-1.728 l 15.936,-20.608002 -0.128,0.896 h -12.992 q -1.536,0 -2.56,-1.024 -1.024,-1.024 -1.024,-2.56 0,-1.472 1.024,-2.432 1.024,-1.024 2.56,-1.024 h 19.712 q 1.472,0 2.496,1.088 1.024,1.088 0.896,2.752 -0.064,0.64 -0.256,1.28 -0.128,0.64 -0.832,1.536 l -15.68,20.288002 v -0.384 z"
       id="path952" />
    <path
       d="m 610.03782,84.569578 q 1.664,0 2.752,1.152 1.088,1.088 1.088,2.752 v 27.200002 q 0,5.888 -2.24,9.344 -2.176,3.52 -5.888,5.056 -3.712,1.536 -8.32,1.536 -2.048,0 -4.352,-0.32 -2.304,-0.32 -3.776,-0.96 -1.92,-0.832 -2.688,-2.112 -0.704,-1.216 -0.256,-2.624 0.576,-1.856 1.856,-2.56 1.28,-0.64 2.688,-0.128 1.024,0.32 2.688,0.96 1.664,0.704 3.84,0.704 2.944,0 4.864,-0.832 1.984,-0.768 2.944,-2.688 1.024,-1.856 1.024,-5.12 v -4.288 l 1.344,1.536 q -1.088,2.112 -2.752,3.52 -1.6,1.344 -3.84,2.048 -2.24,0.704 -5.12,0.704 -3.392,0 -5.952,-1.536 -2.496,-1.6 -3.904,-4.352 -1.408,-2.816 -1.408,-6.4 V 88.473578 q 0,-1.664 1.088,-2.752 1.088,-1.152 2.752,-1.152 1.664,0 2.752,1.152 1.088,1.088 1.088,2.752 v 16.384002 q 0,4.16 1.792,5.888 1.856,1.664 5.12,1.664 2.24,0 3.776,-0.832 1.536,-0.896 2.368,-2.56 0.832,-1.728 0.832,-4.16 V 88.473578 q 0,-1.664 1.088,-2.752 1.088,-1.152 2.752,-1.152 z"
       id="path954" />
    <path
       d="m 626.73482,118.80958 q -1.664,0 -2.752,-1.088 -1.088,-1.152 -1.088,-2.816 V 75.353578 q 0,-1.664 1.088,-2.752 1.088,-1.152 2.752,-1.152 1.664,0 2.752,1.152 1.088,1.088 1.088,2.752 v 39.552002 q 0,1.664 -1.088,2.816 -1.088,1.088 -2.752,1.088 z m 20.352,-34.240002 q 1.472,0 2.56,1.216 1.088,1.216 1.088,2.368 0,1.536 -1.536,2.88 l -19.264,17.728002 -0.32,-8.832002 14.656,-14.144 q 1.216,-1.216 2.816,-1.216 z m 0.96,34.176002 q -1.664,0 -2.816,-1.28 l -11.84,-12.544 5.824,-5.376002 11.52,12.544002 q 1.216,1.28 1.216,2.88 0,1.664 -1.344,2.752 -1.28,1.024 -2.56,1.024 z"
       id="path956" />
    <path
       d="m 686.41182,83.929578 q 1.664,0 2.752,1.088 1.088,1.088 1.088,2.816 v 27.072002 q 0,1.664 -1.088,2.816 -1.088,1.088 -2.752,1.088 -1.664,0 -2.752,-1.088 -1.088,-1.152 -1.088,-2.816 v -3.136 l 1.408,0.576 q 0,0.832 -0.896,2.048 -0.896,1.152 -2.432,2.304 -1.536,1.152 -3.648,1.984 -2.048,0.768 -4.48,0.768 -4.416,0 -8,-2.24 -3.584,-2.304 -5.696,-6.272 -2.048,-4.032 -2.048,-9.216 0,-5.248002 2.048,-9.216002 2.112,-4.032 5.632,-6.272 3.52,-2.304 7.808,-2.304 2.752,0 5.056,0.832 2.304,0.832 3.968,2.112 1.728,1.28 2.624,2.624 0.96,1.28 0.96,2.176 l -2.304,0.832 v -4.672 q 0,-1.664 1.088,-2.752 1.088,-1.152 2.752,-1.152 z m -12.928,28.480002 q 2.816,0 4.928,-1.408 2.112,-1.408 3.264,-3.84 1.216,-2.432 1.216,-5.44 0,-3.072002 -1.216,-5.504002 -1.152,-2.432 -3.264,-3.84 -2.112,-1.408 -4.928,-1.408 -2.752,0 -4.864,1.408 -2.112,1.408 -3.328,3.84 -1.152,2.432 -1.152,5.504002 0,3.008 1.152,5.44 1.216,2.432 3.328,3.84 2.112,1.408 4.864,1.408 z"
       id="path958" />
    <path
       d="m 332.25382,154.00958 q 1.536,0 2.496,1.024 0.96,1.024 0.96,2.56 v 37.312 q 0,1.664 -1.152,2.816 -1.088,1.088 -2.752,1.088 -0.832,0 -1.728,-0.256 -0.832,-0.32 -1.28,-0.832 l -25.152,-31.936 1.664,-1.024 v 30.464 q 0,1.536 -1.024,2.56 -0.96,1.024 -2.56,1.024 -1.536,0 -2.496,-1.024 -0.96,-1.024 -0.96,-2.56 v -37.312 q 0,-1.664 1.088,-2.752 1.152,-1.152 2.816,-1.152 0.896,0 1.856,0.384 0.96,0.32 1.408,1.024 l 24.384,31.104 -1.088,0.768 v -29.696 q 0,-1.536 0.96,-2.56 0.96,-1.024 2.56,-1.024 z"
       id="path960" />
    <path
       d="m 360.75782,199.44958 q -5.44,0 -9.472,-2.24 -3.968,-2.304 -6.144,-6.208 -2.112,-3.904 -2.112,-8.832 0,-5.76 2.304,-9.792 2.368,-4.096 6.144,-6.272 3.776,-2.176 8,-2.176 3.264,0 6.144,1.344 2.944,1.344 5.184,3.712 2.24,2.304 3.52,5.376 1.344,3.072 1.344,6.528 -0.064,1.536 -1.216,2.496 -1.152,0.96 -2.688,0.96 h -24.448 l -1.92,-6.4 h 23.488 l -1.408,1.28 v -1.728 q -0.128,-1.856 -1.344,-3.328 -1.152,-1.472 -2.944,-2.304 -1.728,-0.896 -3.712,-0.896 -1.92,0 -3.584,0.512 -1.664,0.512 -2.88,1.728 -1.216,1.216 -1.92,3.264 -0.704,2.048 -0.704,5.184 0,3.456 1.408,5.888 1.472,2.368 3.712,3.648 2.304,1.216 4.864,1.216 2.368,0 3.776,-0.384 1.408,-0.384 2.24,-0.896 0.896,-0.576 1.6,-0.96 1.152,-0.576 2.176,-0.576 1.408,0 2.304,0.96 0.96,0.96 0.96,2.24 0,1.728 -1.792,3.136 -1.664,1.408 -4.672,2.496 -3.008,1.024 -6.208,1.024 z"
       id="path962" />
    <path
       d="m 407.78782,164.56958 q 1.664,0 2.752,1.152 1.088,1.088 1.088,2.752 v 16.256 q 0,6.784 -3.776,10.752 -3.776,3.968 -10.88,3.968 -7.104,0 -10.88,-3.968 -3.712,-3.968 -3.712,-10.752 v -16.256 q 0,-1.664 1.088,-2.752 1.088,-1.152 2.752,-1.152 1.664,0 2.752,1.152 1.088,1.088 1.088,2.752 v 16.256 q 0,3.904 1.728,5.824 1.728,1.856 5.184,1.856 3.52,0 5.248,-1.856 1.728,-1.92 1.728,-5.824 v -16.256 q 0,-1.664 1.088,-2.752 1.088,-1.152 2.752,-1.152 z"
       id="path964" />
    <path
       d="m 420.38882,165.20958 h 15.168 q 1.536,0 2.56,1.024 1.024,1.024 1.024,2.56 0,1.472 -1.024,2.496 -1.024,0.96 -2.56,0.96 h -15.168 q -1.536,0 -2.56,-1.024 -1.024,-1.024 -1.024,-2.56 0,-1.472 1.024,-2.432 1.024,-1.024 2.56,-1.024 z m 6.848,-8 q 1.664,0 2.688,1.152 1.088,1.088 1.088,2.752 v 28.48 q 0,0.896 0.32,1.472 0.384,0.576 0.96,0.832 0.64,0.256 1.344,0.256 0.768,0 1.408,-0.256 0.64,-0.32 1.472,-0.32 0.896,0 1.6,0.832 0.768,0.832 0.768,2.304 0,1.792 -1.984,2.944 -1.92,1.152 -4.16,1.152 -1.344,0 -3.008,-0.192 -1.6,-0.256 -3.072,-1.088 -1.408,-0.896 -2.368,-2.688 -0.96,-1.792 -0.96,-4.928 v -28.8 q 0,-1.664 1.088,-2.752 1.152,-1.152 2.816,-1.152 z"
       id="path966" />
    <path
       d="m 449.96982,198.80958 q -1.664,0 -2.752,-1.088 -1.088,-1.152 -1.088,-2.816 v -26.432 q 0,-1.664 1.088,-2.752 1.088,-1.152 2.752,-1.152 1.664,0 2.752,1.152 1.088,1.088 1.088,2.752 v 6.016 l -0.448,-4.288 q 0.704,-1.536 1.792,-2.688 1.152,-1.216 2.56,-1.984 1.408,-0.832 3.008,-1.216 1.6,-0.384 3.2,-0.384 1.92,0 3.2,1.088 1.344,1.088 1.344,2.56 0,2.112 -1.088,3.072 -1.088,0.896 -2.368,0.896 -1.216,0 -2.24,-0.448 -0.96,-0.448 -2.24,-0.448 -1.152,0 -2.368,0.576 -1.152,0.512 -2.176,1.664 -0.96,1.152 -1.6,2.88 -0.576,1.664 -0.576,3.968 v 15.168 q 0,1.664 -1.088,2.816 -1.088,1.088 -2.752,1.088 z"
       id="path968" />
    <path
       d="m 501.16182,163.92958 q 1.664,0 2.752,1.088 1.088,1.088 1.088,2.816 v 27.072 q 0,1.664 -1.088,2.816 -1.088,1.088 -2.752,1.088 -1.664,0 -2.752,-1.088 -1.088,-1.152 -1.088,-2.816 v -3.136 l 1.408,0.576 q 0,0.832 -0.896,2.048 -0.896,1.152 -2.432,2.304 -1.536,1.152 -3.648,1.984 -2.048,0.768 -4.48,0.768 -4.416,0 -8,-2.24 -3.584,-2.304 -5.696,-6.272 -2.048,-4.032 -2.048,-9.216 0,-5.248 2.048,-9.216 2.112,-4.032 5.632,-6.272 3.52,-2.304 7.808,-2.304 2.752,0 5.056,0.832 2.304,0.832 3.968,2.112 1.728,1.28 2.624,2.624 0.96,1.28 0.96,2.176 l -2.304,0.832 v -4.672 q 0,-1.664 1.088,-2.752 1.088,-1.152 2.752,-1.152 z m -12.928,28.48 q 2.816,0 4.928,-1.408 2.112,-1.408 3.264,-3.84 1.216,-2.432 1.216,-5.44 0,-3.072 -1.216,-5.504 -1.152,-2.432 -3.264,-3.84 -2.112,-1.408 -4.928,-1.408 -2.752,0 -4.864,1.408 -2.112,1.408 -3.328,3.84 -1.152,2.432 -1.152,5.504 0,3.008 1.152,5.44 1.216,2.432 3.328,3.84 2.112,1.408 4.864,1.408 z"
       id="path970" />
    <path
       d="m 521.69982,194.90558 q 0,1.664 -1.152,2.816 -1.088,1.088 -2.752,1.088 -1.6,0 -2.688,-1.088 -1.088,-1.152 -1.088,-2.816 v -39.552 q 0,-1.664 1.088,-2.752 1.152,-1.152 2.816,-1.152 1.664,0 2.688,1.152 1.088,1.088 1.088,2.752 z"
       id="path972" />
    <path
       d="m 548.93382,163.92958 q 4.736,0 7.168,1.984 2.496,1.984 3.392,5.312 0.96,3.264 0.96,7.296 v 16.384 q 0,1.664 -1.088,2.816 -1.088,1.088 -2.752,1.088 -1.664,0 -2.752,-1.088 -1.088,-1.152 -1.088,-2.816 v -16.384 q 0,-2.112 -0.576,-3.776 -0.512,-1.728 -1.92,-2.752 -1.408,-1.024 -4.032,-1.024 -2.56,0 -4.352,1.024 -1.728,1.024 -2.688,2.752 -0.896,1.664 -0.896,3.776 v 16.384 q 0,1.664 -1.088,2.816 -1.088,1.088 -2.752,1.088 -1.664,0 -2.752,-1.088 -1.088,-1.152 -1.088,-2.816 v -26.432 q 0,-1.664 1.088,-2.752 1.088,-1.152 2.752,-1.152 1.664,0 2.752,1.152 1.088,1.088 1.088,2.752 v 2.752 l -0.96,-0.192 q 0.576,-1.088 1.664,-2.304 1.088,-1.28 2.56,-2.368 1.472,-1.088 3.328,-1.728 1.856,-0.704 4.032,-0.704 z"
       id="path974" />
    <path
       d="m 584.88282,199.44958 q -5.44,0 -9.472,-2.24 -3.968,-2.304 -6.144,-6.208 -2.112,-3.904 -2.112,-8.832 0,-5.76 2.304,-9.792 2.368,-4.096 6.144,-6.272 3.776,-2.176 8,-2.176 3.264,0 6.144,1.344 2.944,1.344 5.184,3.712 2.24,2.304 3.52,5.376 1.344,3.072 1.344,6.528 -0.064,1.536 -1.216,2.496 -1.152,0.96 -2.688,0.96 h -24.448 l -1.92,-6.4 h 23.488 l -1.408,1.28 v -1.728 q -0.128,-1.856 -1.344,-3.328 -1.152,-1.472 -2.944,-2.304 -1.728,-0.896 -3.712,-0.896 -1.92,0 -3.584,0.512 -1.664,0.512 -2.88,1.728 -1.216,1.216 -1.92,3.264 -0.704,2.048 -0.704,5.184 0,3.456 1.408,5.888 1.472,2.368 3.712,3.648 2.304,1.216 4.864,1.216 2.368,0 3.776,-0.384 1.408,-0.384 2.24,-0.896 0.896,-0.576 1.6,-0.96 1.152,-0.576 2.176,-0.576 1.408,0 2.304,0.96 0.96,0.96 0.96,2.24 0,1.728 -1.792,3.136 -1.664,1.408 -4.672,2.496 -3.008,1.024 -6.208,1.024 z"
       id="path976" />
    <path
       d="m 620.33782,163.92958 q 2.688,0 4.928,0.832 2.24,0.832 3.84,2.112 1.664,1.28 2.56,2.624 0.96,1.28 0.96,2.176 l -1.664,0.832 v -4.672 q 0,-1.664 1.088,-2.752 1.088,-1.152 2.752,-1.152 1.664,0 2.752,1.088 1.088,1.088 1.088,2.816 v 28.48 q 0,5.568 -2.432,8.896 -2.368,3.392 -6.272,4.864 -3.904,1.536 -8.384,1.536 -1.28,0 -3.328,-0.32 -2.048,-0.32 -3.904,-0.768 -1.856,-0.448 -2.816,-0.832 -1.92,-0.832 -2.688,-2.112 -0.704,-1.216 -0.256,-2.624 0.576,-1.856 1.856,-2.56 1.28,-0.64 2.688,-0.128 0.64,0.192 2.112,0.768 1.472,0.576 3.2,1.024 1.792,0.512 3.136,0.512 4.8,0 7.104,-1.92 2.304,-1.92 2.304,-5.312 v -5.568 l 0.768,0.576 q 0,0.832 -0.896,2.048 -0.832,1.152 -2.368,2.304 -1.472,1.152 -3.52,1.984 -2.048,0.768 -4.352,0.768 -4.544,0 -8.192,-2.24 -3.648,-2.304 -5.76,-6.272 -2.112,-4.032 -2.112,-9.216 0,-5.248 2.112,-9.216 2.112,-4.032 5.696,-6.272 3.584,-2.304 8,-2.304 z m 1.216,7.04 q -2.88,0 -5.056,1.408 -2.176,1.408 -3.392,3.84 -1.216,2.432 -1.216,5.504 0,3.008 1.216,5.44 1.216,2.432 3.392,3.84 2.176,1.408 5.056,1.408 2.944,0 5.12,-1.408 2.176,-1.408 3.392,-3.84 1.216,-2.432 1.216,-5.44 0,-3.072 -1.216,-5.504 -1.216,-2.432 -3.392,-3.84 -2.176,-1.408 -5.12,-1.408 z"
       id="path978" />
    <path
       d="m 678.97082,181.72158 q 0,5.248 -2.368,9.28 -2.304,3.968 -6.272,6.208 -3.904,2.24 -8.768,2.24 -4.864,0 -8.832,-2.24 -3.904,-2.24 -6.272,-6.208 -2.304,-4.032 -2.304,-9.28 0,-5.248 2.304,-9.216 2.368,-4.032 6.272,-6.272 3.968,-2.304 8.832,-2.304 4.864,0 8.768,2.304 3.968,2.24 6.272,6.272 2.368,3.968 2.368,9.216 z m -7.68,0 q 0,-3.264 -1.344,-5.632 -1.28,-2.432 -3.52,-3.776 -2.176,-1.344 -4.864,-1.344 -2.688,0 -4.928,1.344 -2.176,1.344 -3.52,3.776 -1.28,2.368 -1.28,5.632 0,3.2 1.28,5.632 1.344,2.368 3.52,3.712 2.24,1.344 4.928,1.344 2.688,0 4.864,-1.344 2.24,-1.344 3.52,-3.712 1.344,-2.432 1.344,-5.632 z"
       id="path980" />
  </g>
  <g
     aria-label="zaimki.pl"
     id="text84"
     style="font-style:normal;font-variant:normal;font-weight:normal;font-stretch:normal;font-size:40px;line-height:1.25;font-family:'Quicksand Light';-inkscape-font-specification:'Quicksand Light, ';fill:#000000;fill-opacity:1;stroke:none">
    <path
       d="m 376.4506,251.59569 q 0.48,0 0.8,0.36 0.36,0.32 0.36,0.76 0,0.48 -0.36,0.8 -0.32,0.32 -0.8,0.32 h -13 q -0.52,0 -0.84,-0.4 -0.32,-0.4 -0.32,-0.76 0,-0.24 0.08,-0.44 0.08,-0.24 0.28,-0.48 l 12.12,-16.76 0.16,0.36 h -10.48 q -0.48,0 -0.84,-0.32 -0.32,-0.36 -0.32,-0.8 0,-0.48 0.32,-0.8 0.36,-0.32 0.84,-0.32 h 12.28 q 0.44,0 0.76,0.36 0.36,0.36 0.36,0.84 0,0.24 -0.08,0.44 -0.08,0.2 -0.24,0.44 l -12.04,16.6 -0.48,-0.2 z"
       id="path983" />
    <path
       d="m 399.55123,233.39569 q 0.52,0 0.84,0.36 0.36,0.36 0.36,0.88 v 18 q 0,0.48 -0.36,0.84 -0.36,0.36 -0.84,0.36 -0.52,0 -0.88,-0.36 -0.32,-0.36 -0.32,-0.84 v -4.76 l 0.68,-0.32 q 0,1.12 -0.64,2.28 -0.6,1.16 -1.68,2.16 -1.08,1 -2.56,1.64 -1.44,0.6 -3.12,0.6 -2.72,0 -4.88,-1.4 -2.12,-1.4 -3.36,-3.84 -1.2,-2.44 -1.2,-5.48 0,-3.12 1.24,-5.48 1.24,-2.4 3.36,-3.76 2.12,-1.36 4.8,-1.36 1.72,0 3.2,0.6 1.52,0.6 2.64,1.64 1.12,1.04 1.72,2.4 0.64,1.32 0.64,2.76 l -0.84,-0.6 v -5.08 q 0,-0.52 0.32,-0.88 0.36,-0.36 0.88,-0.36 z m -8.32,18.6 q 2.12,0 3.76,-1.08 1.64,-1.12 2.56,-3.04 0.96,-1.96 0.96,-4.36 0,-2.36 -0.96,-4.24 -0.92,-1.88 -2.56,-3 -1.64,-1.12 -3.76,-1.12 -2.08,0 -3.76,1.08 -1.64,1.08 -2.6,2.96 -0.92,1.88 -0.92,4.32 0,2.4 0.92,4.36 0.96,1.92 2.6,3.04 1.64,1.08 3.76,1.08 z"
       id="path985" />
    <path
       d="m 409.32998,252.63569 q 0,0.48 -0.36,0.84 -0.36,0.36 -0.84,0.36 -0.52,0 -0.88,-0.36 -0.32,-0.36 -0.32,-0.84 v -18.4 q 0,-0.48 0.32,-0.84 0.36,-0.36 0.88,-0.36 0.52,0 0.84,0.36 0.36,0.36 0.36,0.84 z m -1.2,-22.28 q -0.84,0 -1.28,-0.36 -0.4,-0.4 -0.4,-1.12 v -0.4 q 0,-0.72 0.44,-1.08 0.48,-0.4 1.28,-0.4 0.76,0 1.16,0.4 0.44,0.36 0.44,1.08 v 0.4 q 0,0.72 -0.44,1.12 -0.4,0.36 -1.2,0.36 z"
       id="path987" />
    <path
       d="m 424.80373,233.23569 q 2.48,0 4.24,1.32 1.76,1.28 2.4,3.84 l -0.56,0.16 0.24,-0.72 q 0.52,-1.2 1.72,-2.24 1.24,-1.08 2.8,-1.72 1.56,-0.64 3.16,-0.64 2.52,0 4.04,1.08 1.56,1.08 2.24,2.92 0.72,1.8 0.72,4.08 v 11.32 q 0,0.48 -0.36,0.84 -0.32,0.36 -0.84,0.36 -0.52,0 -0.88,-0.36 -0.32,-0.36 -0.32,-0.84 v -11.2 q 0,-1.64 -0.52,-3 -0.52,-1.36 -1.64,-2.16 -1.12,-0.8 -3,-0.8 -1.64,0 -3.16,0.8 -1.48,0.8 -2.44,2.16 -0.92,1.36 -0.92,3 v 11.2 q 0,0.48 -0.36,0.84 -0.32,0.36 -0.84,0.36 -0.52,0 -0.88,-0.36 -0.32,-0.36 -0.32,-0.84 v -11.32 q 0,-1.64 -0.48,-2.96 -0.48,-1.32 -1.56,-2.08 -1.08,-0.8 -2.92,-0.8 -1.64,0 -3.12,0.8 -1.44,0.76 -2.36,2.08 -0.88,1.32 -0.88,2.96 v 11.32 q 0,0.48 -0.36,0.84 -0.36,0.36 -0.84,0.36 -0.56,0 -0.88,-0.36 -0.32,-0.36 -0.32,-0.84 v -17.92 q 0,-0.48 0.32,-0.84 0.36,-0.36 0.88,-0.36 0.52,0 0.84,0.36 0.36,0.36 0.36,0.84 v 3.72 l -1.08,1.48 q 0.12,-1.2 0.76,-2.4 0.68,-1.2 1.76,-2.16 1.08,-0.96 2.44,-1.52 1.4,-0.6 2.92,-0.6 z"
       id="path989" />
    <path
       d="m 453.5281,253.83569 q -0.52,0 -0.88,-0.36 -0.32,-0.36 -0.32,-0.84 v -27.2 q 0,-0.48 0.32,-0.84 0.36,-0.36 0.88,-0.36 0.52,0 0.84,0.36 0.36,0.36 0.36,0.84 v 27.2 q 0,0.48 -0.36,0.84 -0.32,0.36 -0.84,0.36 z m 13.6,-20.52 q 0.44,0 0.8,0.4 0.36,0.36 0.36,0.8 0,0.52 -0.44,0.92 l -13.44,11.44 -0.12,-2.84 12,-10.32 q 0.36,-0.4 0.84,-0.4 z m 0.32,20.52 q -0.52,0 -0.88,-0.44 l -9.12,-9.68 1.8,-1.64 9.04,9.64 q 0.36,0.4 0.36,0.92 0,0.56 -0.44,0.88 -0.44,0.32 -0.76,0.32 z"
       id="path991" />
    <path
       d="m 475.81435,252.63569 q 0,0.48 -0.36,0.84 -0.36,0.36 -0.84,0.36 -0.52,0 -0.88,-0.36 -0.32,-0.36 -0.32,-0.84 v -18.4 q 0,-0.48 0.32,-0.84 0.36,-0.36 0.88,-0.36 0.52,0 0.84,0.36 0.36,0.36 0.36,0.84 z m -1.2,-22.28 q -0.84,0 -1.28,-0.36 -0.4,-0.4 -0.4,-1.12 v -0.4 q 0,-0.72 0.44,-1.08 0.48,-0.4 1.28,-0.4 0.76,0 1.16,0.4 0.44,0.36 0.44,1.08 v 0.4 q 0,0.72 -0.44,1.12 -0.4,0.36 -1.2,0.36 z"
       id="path993" />
    <path
       d="m 482.4081,253.83569 q -0.68,0 -1.04,-0.44 -0.36,-0.44 -0.36,-1.12 v -0.84 q 0,-0.72 0.36,-1.12 0.36,-0.4 1.04,-0.4 h 0.28 q 0.68,0 1.04,0.4 0.36,0.4 0.36,1.12 v 0.84 q 0,0.68 -0.36,1.12 -0.36,0.44 -1.04,0.44 z"
       id="path995" />
    <path
       d="m 499.07373,233.23569 q 2.72,0 4.8,1.36 2.12,1.32 3.36,3.68 1.24,2.32 1.24,5.36 0,3.04 -1.24,5.4 -1.24,2.36 -3.36,3.72 -2.12,1.36 -4.76,1.36 -1.4,0 -2.68,-0.4 -1.24,-0.44 -2.28,-1.16 -1.04,-0.72 -1.84,-1.68 -0.8,-1 -1.28,-2.16 l 0.72,-0.52 v 12.44 q 0,0.48 -0.36,0.84 -0.32,0.36 -0.84,0.36 -0.52,0 -0.88,-0.36 -0.32,-0.36 -0.32,-0.84 v -26.08 q 0,-0.52 0.32,-0.88 0.32,-0.36 0.88,-0.36 0.52,0 0.84,0.36 0.36,0.36 0.36,0.88 v 4.32 l -0.56,-0.32 q 0.4,-1.24 1.16,-2.2 0.8,-1 1.84,-1.68 1.04,-0.72 2.28,-1.08 1.24,-0.36 2.6,-0.36 z m -0.2,2.24 q -2.16,0 -3.8,1.08 -1.64,1.04 -2.6,2.88 -0.92,1.8 -0.92,4.2 0,2.36 0.92,4.24 0.96,1.88 2.6,2.96 1.64,1.04 3.8,1.04 2.12,0 3.72,-1.04 1.64,-1.08 2.6,-2.96 0.96,-1.88 0.96,-4.24 0,-2.36 -0.96,-4.2 -0.96,-1.84 -2.6,-2.88 -1.6,-1.08 -3.72,-1.08 z"
       id="path997" />
    <path
       d="m 516.21248,252.63569 q 0,0.48 -0.36,0.84 -0.36,0.36 -0.84,0.36 -0.52,0 -0.88,-0.36 -0.32,-0.36 -0.32,-0.84 v -27.2 q 0,-0.48 0.36,-0.84 0.36,-0.36 0.84,-0.36 0.52,0 0.84,0.36 0.36,0.36 0.36,0.84 z"
       id="path999" />
  </g>
  <path
     d="m 331.51173,230.50914 c 0.10735,-0.19085 0.0167,-0.34592 -0.20199,-0.34592 l -3.83285,0.002 c -0.21868,0 -0.48904,0.15428 -0.59958,0.34273 l -9.39128,15.88566 c -1.31048,2.15896 -3.13944,2.63608 -4.89683,2.42298 -3.01697,-0.3658 -4.63918,-2.58043 -4.63918,-5.52981 0,-2.96212 2.41024,-5.37236 5.37235,-5.37236 h 5.96398 c 0.21868,0 0.48667,-0.15506 0.59482,-0.34511 l 2.14942,-3.75333 c 0.10894,-0.19006 0.0183,-0.34512 -0.2004,-0.34512 h -8.50861 c -5.41212,0 -9.81592,4.40301 -9.81592,9.81592 0,2.6154 1.02182,5.43597 2.8802,7.27924 1.83134,1.81623 4.27817,2.4818 6.8896,2.53588 1.47429,0.0167 5.52344,-0.0167 7.42157,-3.3939 2.12557,-3.78275 10.8147,-19.19925 10.8147,-19.19925 z m 13.94935,5.57353 c -1.83134,-1.81623 -4.27817,-2.48181 -6.88959,-2.53588 -1.4743,-0.0167 -5.52345,0.0167 -7.42158,3.39389 -2.12476,3.78117 -10.81468,19.19767 -10.81468,19.19767 -0.10735,0.19084 -0.0167,0.34591 0.20197,0.34591 l 3.83285,-0.002 c 0.21869,0 0.48905,-0.15428 0.59958,-0.34273 l 9.39129,-15.88566 c 1.31049,-2.15896 3.13943,-2.63608 4.89682,-2.42297 3.01699,0.36579 4.63918,2.58041 4.63918,5.5298 0,2.96211 -2.41024,5.37235 -5.37235,5.37235 h -5.96398 c -0.21868,0 -0.48666,0.15507 -0.59481,0.34513 l -2.14941,3.75332 c -0.10894,0.19005 -0.0183,0.34512 0.20038,0.34512 h 8.50861 c 5.41212,0 9.81592,-4.40301 9.81592,-9.81592 0,-2.61381 -1.02182,-5.43438 -2.8802,-7.27765 z"
     id="path1574"
     style="stroke-width:0.0795197" />
</svg>
