<?xml version="1.0" encoding="UTF-8" standalone="no"?>
<svg
   xmlns:dc="http://purl.org/dc/elements/1.1/"
   xmlns:cc="http://creativecommons.org/ns#"
   xmlns:rdf="http://www.w3.org/1999/02/22-rdf-syntax-ns#"
   xmlns:svg="http://www.w3.org/2000/svg"
   xmlns="http://www.w3.org/2000/svg"
   xmlns:sodipodi="http://sodipodi.sourceforge.net/DTD/sodipodi-0.dtd"
   xmlns:inkscape="http://www.inkscape.org/namespaces/inkscape"
   viewBox="0 0 512 512"
   version="1.1"
   id="svg889"
   sodipodi:docname="manifest-logo.svg"
   inkscape:version="1.0.1 (c497b03c, 2020-09-10)">
  <metadata
     id="metadata895">
    <rdf:RDF>
      <cc:Work
         rdf:about="">
        <dc:format>image/svg+xml</dc:format>
        <dc:type
           rdf:resource="http://purl.org/dc/dcmitype/StillImage" />
        <dc:title></dc:title>
      </cc:Work>
    </rdf:RDF>
  </metadata>
  <defs
     id="defs893" />
  <sodipodi:namedview
     pagecolor="#ffffff"
     bordercolor="#666666"
     borderopacity="1"
     objecttolerance="10"
     gridtolerance="10"
     guidetolerance="10"
     inkscape:pageopacity="0"
     inkscape:pageshadow="2"
     inkscape:window-width="1680"
     inkscape:window-height="939"
     id="namedview891"
     showgrid="false"
     inkscape:zoom="0.74205766"
     inkscape:cx="64.205311"
     inkscape:cy="223.13449"
     inkscape:window-x="0"
     inkscape:window-y="25"
     inkscape:window-maximized="1"
     inkscape:current-layer="svg889" />
  <path
     d="M 30.943359 -0.65625 C 24.343359 -0.65625 18.943359 4.7437496 18.943359 11.34375 L 18.943359 99.34375 C 18.943359 105.94375 24.343359 111.34375 30.943359 111.34375 L 38.943359 111.34375 C 45.543359 111.34375 50.943359 105.94375 50.943359 99.34375 L 50.943359 53.943359 L 94.943359 97.943359 L 63.84375 129.04297 C 59.14375 133.74297 59.14375 141.34297 63.84375 146.04297 L 69.542969 151.74219 C 74.242969 156.44219 81.842969 156.44219 86.542969 151.74219 L 117.64258 120.64258 L 136.84961 139.84961 C 102.78259 166.13511 81.539062 203.29838 81.539062 244.50781 C 81.539062 277.52252 95.33241 307.76253 118.20703 332.10742 C 107.87879 359.43471 86.391511 382.60147 86.044922 382.87891 C 81.470001 387.73401 80.221432 394.80855 82.855469 400.91211 C 85.489519 407.01567 91.451035 410.96875 98.105469 410.96875 C 140.73544 410.96875 174.35414 393.14334 194.52539 378.85547 C 209.84027 383.66406 226.04209 386.89627 242.94336 388.16602 L 242.94336 423.34375 L 190.94336 423.34375 C 184.34336 423.34375 178.94336 428.74375 178.94336 435.34375 L 178.94336 443.34375 C 178.94336 449.94375 184.34336 455.34375 190.94336 455.34375 L 242.94336 455.34375 L 242.94336 499.34375 C 242.94336 505.94375 248.34336 511.34375 254.94336 511.34375 L 262.94336 511.34375 C 269.54336 511.34375 274.94336 505.94375 274.94336 499.34375 L 274.94336 455.34375 L 326.94336 455.34375 C 333.54336 455.34375 338.94336 449.94375 338.94336 443.34375 L 338.94336 435.34375 C 338.94336 428.74375 333.54336 423.34375 326.94336 423.34375 L 274.94336 423.34375 L 274.94336 388.1875 C 365.47903 381.63033 436.44141 319.82778 436.44141 244.50781 C 436.44141 203.2771 415.17598 166.09642 381.07812 139.80859 L 466.94336 53.943359 L 466.94336 99.34375 C 466.94336 105.94375 472.34336 111.34375 478.94336 111.34375 L 486.94336 111.34375 C 493.54336 111.34375 498.94336 105.94375 498.94336 99.34375 L 498.94336 11.34375 C 498.94336 4.7437496 493.54336 -0.65625 486.94336 -0.65625 L 398.94336 -0.65625 C 392.34336 -0.65625 386.94336 4.7437496 386.94336 11.34375 L 386.94336 19.34375 C 386.94336 25.94375 392.34336 31.34375 398.94336 31.34375 L 444.34375 31.34375 L 353.36719 122.32031 C 326.03085 108.33734 293.67754 100.24219 258.99023 100.24219 C 224.27662 100.24219 191.90022 108.34904 164.55078 122.35156 L 140.14258 97.943359 L 171.24219 66.84375 C 175.94219 62.14375 175.94219 54.54375 171.24219 49.84375 L 165.54297 44.142578 C 160.84297 39.442578 153.24297 39.442578 148.54297 44.142578 L 117.54297 75.34375 L 73.542969 31.34375 L 118.94336 31.34375 C 125.54336 31.34375 130.94336 25.94375 130.94336 19.34375 L 130.94336 11.34375 C 130.94336 4.7437496 125.54336 -0.65625 118.94336 -0.65625 L 30.943359 -0.65625 z M 258.87305 132.41602 C 338.44473 132.41602 403.19727 184.0002 403.19727 247.33789 C 403.19727 310.67559 338.44473 362.25977 258.87305 362.25977 C 240.6392 362.25977 222.59939 359.45255 205.26758 353.90234 L 195.47461 350.76758 L 187.09766 356.77539 C 172.27866 367.41873 149.40604 379.82506 120.99219 382.63281 C 128.72384 372.77302 140.19194 356.25215 147.2793 337.18555 L 151.85547 324.97461 L 143.02734 315.44141 C 124.40692 295.46065 114.54883 271.88942 114.54883 247.33789 C 114.54883 184.00019 179.30134 132.41602 258.87305 132.41602 z "
     id="path887" />
  <path
     d="m 326.56727,220.59312 c 0.19059,-1.08968 0.48891,-2.14621 0.48891,-3.28975 V 184.1573 c 0,-10.98378 -8.90387,-19.88764 -19.88765,-19.88764 h -6.62921 c -2.61854,0 -5.10449,0.53448 -7.39571,1.45843 -2.29122,-8.45225 -9.95625,-14.71686 -19.12114,-14.71686 h -6.62921 c -9.1649,0 -16.82992,6.26461 -19.12115,14.71686 -2.29121,-0.92395 -4.77717,-1.45843 -7.39571,-1.45843 h -6.62921 c -9.16489,0 -16.82992,6.26461 -19.12114,14.71685 -2.29122,-0.92395 -4.77718,-1.45842 -7.39571,-1.45842 h -6.62922 c -10.98377,0 -19.88764,8.90386 -19.88764,19.88764 v 77.47065 c 0,15.81481 6.28118,30.98327 17.46383,42.16593 l 9.05303,9.0613 v 33.71784 c 0,1.83132 1.48328,3.31461 3.3146,3.31461 h 6.62921 c 1.83133,0 3.31461,-1.48329 3.31461,-3.31461 V 320.6238 L 208.05351,307.6844 A 46.392065,46.392065 0 0 1 194.4719,274.88638 v -19.02999 c 2.08407,0.74165 4.29242,1.22226 6.62922,1.22226 h 6.62922 c 5.11277,0 9.73251,-1.9929 13.25842,-5.17078 3.52592,3.18202 8.14564,5.17078 13.25843,5.17078 h 6.62921 c 5.45253,0 10.39544,-2.2125 13.99179,-5.77985 0.0994,0.1243 3.8698,6.06159 12.68666,9.79881 -8.14979,6.5422 -14.05394,14.80801 -23.72845,29.32183 a 3.3112921,3.3112921 0 0 0 0.9198,4.59488 l 5.51469,3.67921 a 3.3112921,3.3112921 0 0 0 4.59487,-0.9198 l 2.61439,-3.92367 c 13.22114,-19.83377 21.36265,-29.12296 39.825,-30.06347 1.76088,-0.0912 3.24003,-1.52058 3.24003,-3.28561 v -6.73694 c 0,-1.83132 -1.48329,-3.31461 -3.31461,-3.31461 h -16.85063 c -10.83876,0 -19.62247,-8.78784 -19.62247,-19.62247 v -0.30659 c 0,-3.63779 2.95,-6.58779 6.58778,-6.58779 h 33.20407 c 14.64642,0 26.51686,11.87044 26.51686,26.51685 v 36.59326 c 0,10.52802 -4.18055,20.621 -11.62599,28.06643 l -14.89087,14.89087 v 29.83146 c 0,1.83132 1.48329,3.31461 3.31461,3.31461 h 6.62921 c 1.83133,0 3.31461,-1.48329 3.31461,-3.31461 v -24.34164 l 10.98378,-10.98378 c 9.94382,-9.94381 15.53307,-23.43426 15.53307,-37.50063 v -36.55597 c 0,-11.96158 -5.39037,-22.56418 -13.74733,-29.85631 z m -112.20772,16.59789 c 0,3.66264 -2.96657,6.62921 -6.62921,6.62921 h -6.62922 c -3.66264,0 -6.62922,-2.96657 -6.62922,-6.62921 v -39.77528 c 0,-3.66264 2.96658,-6.62922 6.62922,-6.62922 h 6.62922 c 3.66264,0 6.62921,2.96658 6.62921,6.62922 z m 33.14606,0 c 0,3.66264 -2.96657,6.62921 -6.62921,6.62921 h -6.62921 c -3.66264,0 -6.62921,-2.96657 -6.62921,-6.62921 V 184.1573 c 0,-3.66264 2.96657,-6.62921 6.62921,-6.62921 h 6.62921 c 3.66264,0 6.62921,2.96657 6.62921,6.62921 z m 33.14607,-26.51686 h -13.27086 c -2.31193,0 -4.52443,0.45577 -6.61677,1.18083 v -40.9561 c 0,-3.66265 2.96656,-6.62922 6.62921,-6.62922 h 6.62921 c 3.66264,0 6.62921,2.96657 6.62921,6.62922 z m 33.14607,2.43624 c -4.16398,-1.47914 -8.58483,-2.43624 -13.25843,-2.43624 h -6.62921 V 184.1573 c 0,-3.66264 2.96657,-6.62921 6.62921,-6.62921 h 6.62921 c 3.66265,0 6.62922,2.96657 6.62922,6.62921 z"
     id="path897"
     style="stroke-width:0.414326" />
</svg>
